<?xml version="1.0" standalone="no"?>
<!DOCTYPE svg PUBLIC "-//W3C//DTD SVG 1.1//EN" "http://www.w3.org/Graphics/SVG/1.1/DTD/svg11.dtd">
<svg xmlns="http://www.w3.org/2000/svg">
<metadata>Copyright (C) 2022 by original authors @ fontello.com</metadata>
<defs>
<font id="holol-dashboard" horiz-adv-x="1000" >
<font-face font-family="holol-dashboard" font-weight="400" font-stretch="normal" units-per-em="1000" ascent="850" descent="-150" />
<missing-glyph horiz-adv-x="1000" />
<glyph glyph-name="emo-happy" unicode="&#xe800;" d="M261 800c-60 0-109-65-109-144 0-80 49-145 109-145s110 65 110 145c0 79-49 144-110 144z m477 0c-61 0-110-65-110-144 0-80 49-145 110-145 60 0 110 65 110 145 0 79-50 144-110 144z m208-599c-13 0-27-5-37-16-4-4-8-8-12-12-111-109-253-164-396-165-142-2-285 50-396 155l-3 3-12 12c-21 21-54 20-75-1-20-21-20-55 1-76 3-4 8-8 14-14l3-3c132-124 301-186 469-184 169 1 337 67 468 195 5 5 9 10 14 14 20 22 20 56-1 77-10 10-23 15-37 15z" horiz-adv-x="999" />

<glyph glyph-name="emo-wink" unicode="&#xe801;" d="M261 800c-60 0-109-65-109-144 0-80 49-145 109-145s110 65 110 145c0 79-49 144-110 144z m343-98c-29 0-54-24-54-54 0-30 25-54 54-54l267 0c30 0 54 24 54 54 0 30-24 54-54 54l-267 0z m342-501c-13 0-27-5-37-16-4-4-8-8-12-12-111-109-253-164-396-165-142-2-285 50-396 155l-3 3-12 12c-21 21-54 20-75-1-20-21-20-55 1-76 3-4 8-8 14-14l3-3c132-124 301-186 469-184 169 1 337 67 468 195 5 5 9 10 14 14 20 22 20 56-1 77-10 10-23 15-37 15z" horiz-adv-x="999" />

<glyph glyph-name="emo-unhappy" unicode="&#xe802;" d="M261 800c-60 0-109-65-109-144 0-80 49-145 109-145s110 65 110 145c0 79-49 144-110 144z m477 0c-61 0-110-65-110-144 0-80 49-145 110-145 60 0 110 65 110 145 0 79-50 144-110 144z m-244-599c-165 0-331-62-461-184l-3-3c-6-5-11-10-14-14-21-21-21-55-1-76 21-21 54-21 75-1l12 12 3 3c111 105 254 157 396 155 143-1 285-56 396-165 4-4 8-8 12-12 20-21 54-21 74-1 21 21 21 55 1 77-5 5-9 10-14 14-131 129-299 194-468 195-3 0-6 0-8 0z" horiz-adv-x="999" />

<glyph glyph-name="emo-sleep" unicode="&#xe803;" d="M53 693c-11 0-21-4-30-10-24-17-30-50-13-75 45-63 119-102 196-102 71 0 138 32 183 85 20 22 18 55-4 75-22 20-56 18-76-4l0 0-1-1 0 0 0-1-1-1c-3-3-7-7-10-10l-1-1-1-1c-3-3-7-6-11-9l0 0c-59-42-143-29-186 32-11 15-28 23-45 23z m485 0c-11 0-21-4-30-10-24-17-30-50-13-75 45-63 119-102 197-102 70 0 137 32 183 85 19 22 17 55-5 75-22 20-56 18-75-4l-1 0-1-1 0 0 0-1-1-1c-3-3-7-7-10-10l-1-1 0-1c-4-3-8-6-12-9l0 0c-59-42-143-29-186 32-11 15-28 23-45 23z m-435-579c-29 0-53-24-53-53 0-30 24-54 53-54l682 0c30 0 54 24 54 54s-24 53-54 53l-682 0z" horiz-adv-x="888" />

<glyph glyph-name="emo-thumbsup" unicode="&#xe804;" d="M744 850c-60 0-109-64-109-143 0-79 49-143 109-143 60 0 108 64 108 143 0 79-48 143-108 143z m-602-80c-29 0-53-24-53-54s24-53 53-53l290 0c30 0 54 24 54 53s-24 53-54 53l-290 1z m1040-21c-16 0-34-2-54-7-112-51-109-174-93-266l-131 0c-68 0-124-53-124-123 0-34 8-71 30-98-10-11-18-24-23-38-18-48-10-106 23-144-5-6-18-27-18-27-29-57-10-144 46-179 17-11 38-17 64-17l378 0c91 3 167 76 167 169l0 287c0 49-30 108-49 151-25 58-49 116-73 174-30 72-71 118-143 118z m3-115c30 1 42-48 51-67 21-52 42-129 64-181 21-47 38-88 38-104l0-255c0-41-36-72-76-74l-332 0c-17 0-26 9-30 24-5 15-7 34 4 47 6 8 16 13 26 13 21-1 39 17 39 38 0 21-17 37-38 37-9 0-18 4-24 11-15 16-16 50 0 65 3 4 7 6 12 8 4 1 8 2 12 2 20 0 38 17 38 38 0 21-17 38-38 38-28 0-34 28-34 50 0 12 7 23 17 29-1 2 189 4 210 4 27 0 47 30 33 55-27 51-45 207 22 221 2 1 4 1 6 1z m-1133-264c-7 0-14-1-20-4-27-12-39-44-27-71 66-148 194-254 344-297 29-8 59-14 90-17 30-3 61-4 91-2l3 0 2 0c30 3 52 28 50 58-2 29-28 51-58 49l-2 0-1 0c-25-2-50-1-74 1-24 3-48 8-72 14-120 34-222 120-276 238-9 20-29 32-50 31z" horiz-adv-x="1447" />

<glyph glyph-name="emo-devil" unicode="&#xe805;" d="M111 850c-1 0-3 0-5 0-1 0-2 0-3-1l0 0c-1 0-2 0-3 0-1 0-1 0-1 0-8-2-17-7-24-12-2-1-3-2-5-4-1-1-2-2-4-3l0 0 0 0 0 0 0 0c-11-11-20-22-28-34-2-2-3-5-5-7-1-2-3-4-4-7l0 0 0 0 0 0c-7-12-12-24-17-37-1-3-1-6-2-8-1-2-1-5-2-8l0 0c-17-65-5-136 18-188 5-10 10-19 15-28 5-8 11-16 16-23l1 0 0 0 0 0 0 0c5-6 12-9 20-10 7-1 15 2 21 7l0 0c1 1 3 2 4 4l0 0c0 0 0 0 0 0 0 1 1 1 1 1 4 5 7 10 11 15l3 3 2 3 0 0c4 5 8 9 12 14l3 2 2 3 0 0 0 0 0 0 0 0c22 24 47 44 74 62 5 4 11 7 16 10 5 3 10 6 16 9 0 1 0 1 1 1 7 4 12 10 14 17 2 8 1 16-3 23l0 0c-2 5-6 8-11 11l0 0 0 0c0 0-1 1-1 1-1 0-1 0-1 0-1 1-2 1-3 2l0 0 0 0 0 0 0 0c-7 2-13 5-20 8-1 0-2 1-3 2l-3 1c0 0-1 1-1 1l0 0c-5 3-11 6-16 10 0 0-1 1-2 2l-2 2c-1 0-1 0-1 0l0 0 0 0 0 0c-23 19-36 42-40 67 0 4-1 9-1 14 0 5 0 10 1 14l0 0 0 1c2 10 2 18 0 25 0 2-1 3-1 5 0 1-1 3-1 4l-1 0 0 0 0 0c-3 8-8 14-14 19-1 1-3 1-4 2-1 1-3 2-4 2l0 0 0 0c-5 2-10 3-15 3z m777 0c-5 0-10-1-14-3l0 0 0 0c-2 0-3-1-4-2-2-1-3-1-4-2-6-5-11-11-15-19l0 0 0 0 0 0c0-1-1-3-1-4-1-2-1-3-1-5-2-7-2-15 0-25l0-1 0 0c0-4 1-9 1-14 0-5-1-10-1-14-4-25-18-48-40-67l0 0 0 0 0 0c-1 0-1 0-1 0l-2-2c-1-1-2-2-3-2-5-4-10-7-15-10l0 0c-1 0-1-1-1-1l-3-1c-1-1-3-2-4-2-6-3-12-6-19-8l0 0 0 0 0 0 0 0c-1-1-2-1-3-2 0 0-1 0-1 0-1 0-1-1-2-1l0 0 0 0c-4-3-8-6-10-11l-1 0c-3-7-4-15-2-23 2-7 7-13 14-17 1 0 1 0 1-1 6-3 11-6 16-9 5-3 10-6 16-10 27-18 51-38 74-62l0 0 0 0 0 0 0 0 2-3 3-2c4-5 8-9 12-14l0 0 2-3 2-3c4-5 8-10 12-15 0 0 0 0 1-1 0 0 0 0 0 0l0 0c1-2 2-3 4-4l0 0c6-5 14-8 21-7 7 1 15 4 20 10l0 0 0 0 0 0 0 0c6 7 11 15 17 23 5 9 10 18 14 28 23 52 36 123 19 188l0 0c-1 3-2 6-2 8-1 2-2 5-3 8-4 13-9 25-16 37l0 0 0 0 0 0c-2 3-3 5-4 7-2 2-3 5-5 7-8 12-17 23-28 34l0 0 0 0-1 0 0 0c-1 1-2 2-4 3-1 2-2 3-4 4-8 5-16 10-24 12 0 0-1 0-1 0-1 0-2 0-3 0l0 0c-1 1-2 1-4 1-1 0-3 0-5 0z m-666-388l-1-2 0 0c-46-63-46-164 0-227 22-30 53-49 87-49l0 0 1 0 0 0c82 0 122 94 122 162l0 0 0 1 0 0c0 6 0 11-1 16-2 1-4 2-7 4l-201 95z m556 0l-202-95c-2-2-4-3-6-4-1-5-1-10-1-16l0 0 0-1 0 0c0-68 40-162 122-162l0 0 0 0 0 0c35 0 65 19 87 49 46 63 47 164 0 227l1 0-1 2z m21-374c-13 0-27-5-37-15l0 0c-1-1-1-2-2-3-10-10-20-20-31-29-10-9-22-18-34-26-62-41-135-62-210-58l0 0 0-1c-47 2-93 14-135 33-7 4-14 7-20 10-33 19-64 43-91 72-20 22-53 23-75 3-22-20-23-53-3-75 34-37 74-69 119-93 9-5 17-9 26-13 54-25 113-40 174-42l0-1 0 0c98-4 193 23 273 76 16 10 31 22 45 34 14 12 28 25 40 39 20 21 20 54-1 74-10 11-24 16-38 15z" horiz-adv-x="1000" />

<glyph glyph-name="emo-surprised" unicode="&#xe806;" d="M110 849c-61 0-110-65-110-144 0-80 49-145 110-145s109 65 109 145c0 79-49 144-109 144z m476 0c-60 0-109-65-109-144 0-80 49-145 109-145 61 0 110 65 110 145 0 79-49 144-110 144z m-255-432l0 0c-56 0-107-23-143-59-37-37-60-88-60-144l0 0 0-162 0 0c0-56 23-106 59-143 37-37 88-60 144-60l0 0 34 0 0 0c56 0 107 23 143 60 37 36 60 87 60 143l0 0 0 162 0 0c0 56-23 107-59 143-37 37-88 60-144 60l0 0-34 0z m0-107l0 0 34 0 0 0c26 0 50-11 67-28 18-18 29-42 29-68l0 0 0-162 0 0c0-26-11-50-28-67-18-18-42-29-68-29l0 1-34 0 0-1c-26 0-50 11-68 29-17 17-28 41-28 67l0 0 0 162 0 0c0 26 11 50 28 67 18 18 42 29 68 29z" horiz-adv-x="696" />

<glyph glyph-name="emo-tongue" unicode="&#xe807;" d="M174 800c-61 0-110-65-110-144 0-80 49-145 110-145s110 65 110 145c0 79-49 144-110 144z m476 0c-60 0-109-65-109-144 0-80 49-145 109-145 61 0 110 65 110 145 0 79-49 144-110 144z m121-560l-718-1c-29 0-53-24-53-53 0-30 24-54 53-54l140 0 0-74c0-55 20-108 60-148 46-47 103-60 165-60 57 0 111 17 153 59 41 41 60 94 60 150l0 74 140 0c29 0 53 24 53 53 0 30-24 54-53 54z m-471-109l224 0 0-72c0-27-7-53-28-74-39-39-129-39-168 0-20 21-28 45-28 73l0 73z" horiz-adv-x="824" />

<glyph glyph-name="emo-coffee" unicode="&#xe808;" d="M1234 850c-17 0-34-8-44-23-54-80-24-144 4-204 13-29 26-56 5-72-23-17-28-51-10-74 17-23 51-28 74-10 89 67 60 131 27 201-15 33-32 70-12 99 16 25 10 57-14 74-9 6-20 9-30 9z m-1021-121c-81 0-157-39-203-105-18-25-12-59 14-77 24-17 59-11 76 14 45 63 132 76 193 32l0 0c3-2 7-5 11-9l1 0 1-2c3-3 7-7 10-10l1-1 0-1 0 0 1-1 1 0c20-23 55-25 78-4 22 20 24 55 4 77-46 55-116 87-188 87z m499 0c-80 0-156-39-202-105-18-25-12-59 13-77 25-17 59-11 77 14 44 63 131 76 192 32l0 0c4-2 8-5 12-9l0 0 1-2c4-3 7-7 11-10l1-1 0-1 0 0 1-1 0 0c20-23 55-25 78-4 23 20 25 55 4 77-46 55-116 87-188 87z m206-346c-24 0-44-19-44-43l1-4-1-275 0 0 0 0 0 0c0-58 24-111 62-149l0 0 0 0 0 0c38-38 91-62 148-62l0 0 226 0c1 0 3 0 5 0 13 1 27 2 39 5 15 4 29 8 42 14 55 26 97 74 114 133l31 0 0 0c37 0 70 15 94 39 23 23 38 56 38 92l0 0 0 0 0 119 0 0c0 36-15 69-39 93l0 0c-23 23-56 38-92 38l0 0 0 0-624 0z m604-100c11 0 21-5 28-12l1 0 0 0c7-8 12-18 12-29l0 0 0-110 0 0c0-11-5-21-12-29-8-7-18-12-29-12l0 0-62 0 0 0c-21 0-39-16-40-36-4-42-31-77-67-94-7-3-15-6-22-8-7-1-14-2-21-2l-3 0-209 0 0-1c-30 1-59 13-79 34l-1 0c-21 21-34 50-34 81l0 0 0 0 0 0 1 218 537 0 0 0z m-82-55l0-96 32 0c22 0 39 17 39 38l0 20c0 21-17 38-39 38l-32 0z m-1131-12c-30 0-55-25-55-55s25-55 55-55l297 0c30 0 54 25 54 55s-24 55-54 55l-297 0z" horiz-adv-x="1673" />

<glyph glyph-name="emo-sunglasses" unicode="&#xe809;" d="M495 745c-154 0-309 0-463 0-18 0-32-15-32-33 3-152 129-306 278-309 84-1 164 36 218 95 55-59 135-96 219-95 149 3 272 157 275 309 0 18-14 33-32 33-155 0-309 0-463 0z m319-510c-18 0-35-9-45-25l0 0c0-1-1-2-1-3-7-12-15-23-24-34-10-12-19-23-29-32-54-51-126-80-203-80l0 0 0 0c-21 0-43 2-64 7-3 1-6 1-10 2-17 5-34 11-51 19-26 12-58 1-70-26-13-27-1-58 25-71 22-10 45-18 69-24 5-1 9-2 14-4 29-6 58-9 87-9l0 0 0 0c104 0 201 39 275 108 15 14 28 29 40 44 11 14 22 30 32 47 0 0 1 1 1 1 15 25 7 58-18 73-9 5-18 8-28 7z" horiz-adv-x="990" />

<glyph glyph-name="emo-displeased" unicode="&#xe80a;" d="M171 800c-61 0-110-65-110-144 0-80 49-145 110-145s109 65 109 145c0 79-49 144-109 144z m476 0c-61 0-110-65-110-144 0-80 49-145 110-145 61 0 110 65 110 145 0 79-49 144-110 144z m-594-447c-18 0-36-10-46-27-15-26-6-59 20-74l709-379c26-15 59-6 74 20 15 26 6 59-20 74l-709 379c-9 5-18 7-28 7z" horiz-adv-x="817" />

<glyph glyph-name="emo-beer" unicode="&#xe80b;" d="M1364 850c-29 0-59-7-86-20-4-2-8-4-12-7-38-22-37-12-80-14-32-1-62-12-89-29-26-16-49-39-65-64-16-27-26-58-25-89 1-26 23-46 49-46l0-1 619 0c26 0 48 22 48 48 3 32-7 64-24 91-15 24-36 45-60 61-25 15-53 26-82 29-21 2-42 0-62-6-3 3-7 5-10 8-36 26-79 39-121 39z m-695-47c-61 0-111-65-111-145 0-80 50-145 111-145 60 0 110 65 110 145 0 80-50 145-110 145z m695-50c29 1 60-12 83-37 15-19 42-24 63-11 11 7 24 9 37 8 14-2 28-7 40-15 9-5 17-13 24-21l-487 0c7 8 15 16 24 22 13 8 28 13 42 14 10 0 21-2 31-8 19-13 46-9 62 9 21 25 51 39 81 39z m-1041-49l-269 0c-30 0-54-24-54-54 0-30 24-54 54-54l269 0c30 0 54 24 54 54 0 30-24 54-54 54z m727-190c-23 0-42-19-42-42l0-4-1-412 0 0 0 0 0 0c0-57 24-108 61-145l0 0 0-1 0 0c37-37 89-60 145-60l0 0 220 0c2 0 4 0 5 0 14 1 27 2 39 5 14 3 28 8 41 14 53 25 95 72 112 129l30 0 0 1c35 0 68 14 91 38 23 23 38 55 38 90l0 0 0 0 0 1 0 257 0 0 0 0c0 36-15 68-38 91l0 1c-23 23-55 37-91 37l0 0 0 0-610 0z m591-98c11 0 21-5 28-12l0 0 0 0c7-7 12-17 12-28l0 0 0 0 0-250 0 0 0 0c0-11-5-21-12-28-7-8-17-12-28-12l0 0-61 0 0 0c-20 0-37-16-39-36-4-41-30-75-65-92-7-3-15-5-22-7-7-2-14-2-21-3l-2 0-204 0 0 0c-30 0-58 13-78 33l-1 0c-20 21-33 49-33 79l0 0 0 0 0 0 1 356 102 0 0-349c0-35 69-33 69 0l0 349 102 0 0-353c0-36 69-34 69 0l0 353 183 0 0 0z m-80-60l0-208 32 0c20 0 37 17 37 37l0 133c0 21-17 38-37 38l-32 0z m-1502-15c-6 0-12-1-18-4-28-10-43-40-32-68 46-127 137-229 251-291 22-12 45-22 69-31 58-21 121-33 186-33l0 0 0 0 0 0c57 0 113 9 167 27 10 3 20 7 30 11 11 4 22 8 31 13l0 0 0 0 0 0c27 13 38 45 25 71-12 27-44 38-70 26l0 0c-9-4-17-8-25-11-8-3-16-6-25-9-43-14-88-21-133-21l0 0 0 0 0 0c-52 0-102 9-149 27-19 7-38 15-55 25-92 49-165 131-202 232-8 22-28 36-50 36z" horiz-adv-x="1789" />

<glyph glyph-name="emo-grin" unicode="&#xe80c;" d="M197 801c-61 0-110-64-110-144 0-80 49-144 110-144s109 64 109 144c0 80-49 144-109 144z m476 0c-60 0-109-64-109-144 0-80 49-144 109-144 61 0 110 64 110 144 0 80-49 144-110 144z m144-480l-765 0c-29 0-52-24-52-54 3-200 238-351 422-354 186-3 442 156 448 355 0 29-24 53-53 53z m-700-106l634 0c-62-121-190-201-331-197-130 4-246 83-303 197z" horiz-adv-x="870" />

<glyph glyph-name="emo-angry" unicode="&#xe80d;" d="M53 738c-20 0-39-11-48-30-13-26-1-58 25-71l152-80c-3-46 8-93 34-128 21-29 52-49 88-49 90 0 126 107 121 179-120 53-232 115-349 174-7 4-15 5-23 5z m894 0c-8 0-16-1-23-5-117-59-229-121-349-174-5-72 31-179 121-179 36 0 67 20 88 49 25 35 37 82 34 128l152 80c26 13 37 45 25 71-10 19-29 30-48 30z m-453-537c-165 0-330-62-461-184l-2-3c-6-5-11-10-15-14-21-21-21-55-1-76 21-21 54-21 75-1l12 12 3 3c112 105 254 157 396 155 143-1 286-56 396-165 4-4 8-8 12-12 21-21 54-21 75-1 21 21 21 55 0 77-4 5-9 10-14 14-130 129-299 194-468 195-3 0-5 0-8 0z" horiz-adv-x="1000" />

<glyph glyph-name="emo-saint" unicode="&#xe80e;" d="M489 841c-115 0-229-10-322-30-103-21-166-57-167-102l0 0 0 0 0 0c1-45 64-81 167-102l0 0c190-40 475-40 665 0 103 21 167 57 167 102l1 0 0 0-1 0c0 45-64 81-167 102l0 0c-98 21-221 31-343 30z m11-89c193 0 350-19 350-43 0-24-157-43-350-43-194 0-351 19-351 43 0 24 157 43 351 43z m-334-359c-30 0-54-24-54-54s24-54 54-54l186 0c30 0 54 24 54 54 0 30-24 54-54 54l-186 0z m482 0c-30 0-54-24-54-54s24-54 54-54l186 0c30 0 54 24 54 54 0 30-24 54-54 54l-186 0z m151-301c-13-1-27-6-37-16-1-1-1-2-2-2-10-11-20-21-31-30-10-9-22-18-34-26-62-41-135-62-211-58l0-1c-46 2-92 14-134 33-7 4-14 7-20 10-33 19-64 43-91 72-20 22-54 23-75 3-22-20-23-53-3-75 34-37 74-68 119-93 8-5 17-9 26-13 54-25 113-40 174-42l0-1c98-4 193 23 273 76 16 11 31 22 45 34 14 12 28 25 40 39 20 21 20 54-1 74-10 11-24 16-38 16z" horiz-adv-x="999" />

<glyph glyph-name="emo-cry" unicode="&#xe80f;" d="M278 787c-7 0-15-2-23-5l-128-62-80-38c-2-1-4-2-6-3-1-5-1-11-1-16l0 0 0-1 0 0c0-69 40-162 122-162l0 0 0 0 0 0c34 0 65 18 87 49 26 35 37 82 34 128l18 9c27 12 38 44 25 71-9 19-28 30-48 30z m212 0c-20 0-39-11-48-30-13-27-1-59 25-71l18-9c-3-46 9-93 34-128 22-31 53-49 87-49l0 0 1 0 0 0c82 0 121 93 122 162l0 0 0 1 0 0c0 5-1 11-1 16-2 1-5 2-7 3l-80 38-128 62c-7 3-15 5-23 5z m279-302c-7 0-15-5-21-16-42-72-96-259 27-259 123 1 73 182 16 261-6 8-14 13-22 14z m-512-138c-57 0-112-9-166-26-10-4-20-7-30-11-11-5-21-9-30-13l0 0-1-1 0 0c-26-12-37-44-25-70 13-26 44-38 70-25l0-1c9 5 17 8 24 11 9 3 17 6 25 9 43 14 88 21 133 21 51 0 101-9 148-27 19-7 37-15 55-24 91-49 163-130 200-232 10-27 40-41 68-31 27 10 42 40 32 67-46 127-137 228-250 289-22 12-45 22-69 31-57 21-120 33-184 33z" horiz-adv-x="851" />

<glyph glyph-name="emo-shoot" unicode="&#xe810;" d="M53 850c-20 0-39-11-48-30-13-27-1-59 25-71l152-80c-3-46 8-93 34-129 21-28 52-49 88-49 90 0 126 108 121 180-120 53-232 114-349 174-7 3-15 5-23 5z m519-169c-30 0-54-24-54-54s24-54 54-54l186 0c30 0 54 24 54 54 0 30-24 54-54 54l-186 0z m619-87c-40 0-77-17-105-43l-2-2c-5-5-10-11-14-17-11-15-20-32-24-51-18-7-36-14-53-23-27-13-55-29-82-48l0 0c-73-50-163-159-201-265-8-22-14-44-17-66-3-21-4-42-2-63l1-4 0-1c9-68 37-114 78-140 9-5 18-9 28-13 8-2 17-4 26-5 2-1 3-1 6-1l3 0 0 0 1 0c54-3 100-2 145-1 21 1 41 1 60 1 118 1 143 92 167 184 7 26 14 52 23 72l219 0c84 0 127 45 148 100 3 11 6 21 8 32l290-1 1 0c29 0 52 23 52 52l0 154 1 0 0 67-1 0 0 0c0 21-8 40-22 53-12 12-27 20-44 22-3 1-7 1-10 1l-49 0 0 0-1 0c-19-1-36-8-49-19l0-1-1 0-2-2-1-1c-9-8-15-20-19-32l-162 0c-14 18-31 33-51 43l0 0c-5 3-10 5-15 7l-4 1c-14 6-29 9-45 9-2 1-4 1-6 1l-275 0z m278-105c4-1 8-2 12-3l1-1 1 0 0 0c2 0 3-1 4-1l0-1 0 0c9-5 17-13 21-23 9-21 31-34 53-32l237 0c19 0 35 10 45 24l0-7 0 0 0-101-286 1c-29 0-52-23-52-52l0 0c0-3-1-8-1-13l0 0 0-1 0 0c-1-6-1-12-3-18-1-6-2-11-4-16-6-18-20-32-49-32l-249 0c-19 0-36-10-45-26-4-6-9-13-12-19l0-1c-6 4-35-97-37-104-14-53-28-106-67-106-22 0-42-1-62-1l0 0c-42-1-85-3-135 0l0 0-3 1-2 0c-2 0-4 1-5 1-3 1-5 2-7 3-13 8-24 30-28 64l0 1-1 1c-1 11 0 23 2 37 2 15 6 30 12 45 31 87 103 175 161 215l0 0 0 0c23 15 46 29 70 40 23 12 46 21 69 29 22 7 36 28 36 50l0 0 0 0 0 0 0 2c1 9 4 18 9 25 2 2 3 4 5 5 8 8 20 14 32 14l275 0 3 0z m-1027-176c-123 0-241-44-334-120-17-15-35-31-51-49-16-17-31-36-45-55-16-24-10-57 14-74 24-17 57-11 73 13 11 16 23 31 36 44 12 14 26 27 41 39 74 61 168 95 266 95l0 0 0 1c18 0 36-2 55-4 1 0 1 0 8-2 16-2 31-5 45-9 28-7 58 9 65 38 8 28-9 57-37 65-19 5-38 9-57 12-1 0-2 0-11 1-22 3-45 4-68 4l0 1 0 0z" horiz-adv-x="1948" />

<glyph glyph-name="emo-squint" unicode="&#xe811;" d="M128 607c-30 0-54-24-54-54 0-30 24-54 54-54l267 0c30 0 54 24 54 54 0 30-24 54-54 54l-267 0z m476 0c-29 0-54-24-54-54 0-30 25-54 54-54l267 0c30 0 54 24 54 54 0 30-24 54-54 54l-267 0z m342-406c-13 0-27-5-37-16-4-4-8-8-12-12-111-109-253-164-396-165-142-2-285 50-396 155l-3 3-12 12c-21 21-54 20-75-1-20-21-20-55 1-76 3-4 8-8 14-14l3-3c132-124 301-186 469-184 169 1 337 67 468 195 5 5 9 10 14 14 20 22 20 56-1 77-10 10-23 15-37 15z" horiz-adv-x="999" />

<glyph glyph-name="emo-laugh" unicode="&#xe812;" d="M206 742c-77 0-151-39-196-103-17-24-11-57 13-74 24-17 58-12 75 13 43 61 127 74 186 31l0 0c4-2 8-5 11-9l1 0 1-1c3-3 7-7 10-11l1-1 0 0 0 0 1-1 0 0c20-22 54-24 76-4 22 19 24 53 4 75-45 53-112 85-183 85z m486 0c-78 0-152-39-197-103-17-24-11-57 13-74 24-17 58-12 75 13 43 61 127 74 186 31l0 0c4-2 8-5 12-9l0 0 1-1c4-3 7-7 10-11l1-1 0 0 0 0 1-1 1 0c19-22 53-24 75-4 22 19 24 53 5 75-46 53-113 85-183 85z m148-421l-765 0c-29 0-52-24-52-54 4-200 238-351 422-354 187-3 443 156 448 355 0 29-24 53-53 53z m-700-106l634 0c-61-121-190-201-330-197-130 4-247 83-304 197z" horiz-adv-x="893" />

<glyph glyph-name="emo-wink2" unicode="&#xe813;" d="M664 800c-61 0-110-65-110-144 0-80 49-145 110-145 60 0 110 65 110 145 0 79-50 144-110 144z m-343-98l-267 0c-30 0-54-24-54-54 0-30 24-54 54-54l267 0c30 0 54 24 54 54 0 30-24 54-54 54z m-262-361c-6 0-13-1-19-3-27-10-41-41-31-68 46-127 136-228 249-289 22-12 45-22 69-31 58-21 120-33 184-33 57 0 113 9 166 27 10 3 20 7 30 11 11 4 22 8 31 12l0 1 0 0 0 0c26 12 38 44 25 71-13 26-44 37-70 25l0 0c-9-4-17-8-24-11-8-3-17-6-25-8-43-14-88-22-133-22-51 0-101 10-148 27-19 7-37 15-55 25-90 48-163 130-200 231-8 21-28 35-49 35z" horiz-adv-x="774" />

<glyph glyph-name="spin1" unicode="&#xe830;" d="M496 850c-176 0-331-90-421-226-18-27-33-55-46-85-12-29-21-60-28-92 0 0 0-1 0-1l0 0 0 0c0-1 0-2 0-2 0-7 5-12 11-12l101 0c5 0 10 4 11 9 29 113 109 206 214 253 20 10 41 17 63 23 31 7 62 11 95 11l0 0 0 0 0 0c25 0 50-2 74-7 5-1 10-2 14-3 6-1 10-3 14-4l0 0c5-1 11 1 13 6l51 87c0 0 1 1 1 2 2 6-1 13-7 15-22 7-43 13-65 17-5 1-9 1-13 2-27 5-54 7-82 7l0 0 0 0z m327-114c-5 0-9-2-11-6l-50-87c-3-4-2-10 2-14 29-29 54-63 73-101 4-7 7-14 11-22 19-46 30-97 30-151l0 0 0 0c0-77-22-149-62-209-7-11-15-23-24-33-9-11-18-21-28-31l0 0 0 0 0 0c-4-4-5-10-2-14l50-87c0-1 1-2 2-3 4-5 11-5 16-1 58 52 104 117 134 190 6 15 11 29 15 44 14 46 21 94 21 144 0 108-34 209-92 291-11 16-23 31-37 46-13 14-26 28-41 41l0 0c-1 1-1 1-2 1-2 1-4 2-5 2z m-811-468l0 0c-1 0-2 0-3 0-6-1-10-8-9-14 34-166 149-302 302-366 30-12 61-21 93-28 32-6 66-10 100-10l0 0 0 0c40 0 79 5 117 14 7 1 14 3 22 5 6 2 13 5 20 7 1 0 2 1 3 1 6 3 8 10 4 16l-50 87c-3 5-8 7-13 6-14-4-28-7-42-9-3-1-6-1-8-2-18-2-35-3-53-3l0 0 0 0c-128 0-242 63-311 160-1 0-1 0-1 0-13 19-25 40-35 61-10 21-18 43-24 65-1 6-6 10-11 10l-101 0z" horiz-adv-x="1000" />

<glyph glyph-name="spin2" unicode="&#xe831;" d="M46 144l0 0c0 0-1 0-1 0-8 18-15 37-21 55-6 19-11 38-15 58-19 99-8 203 35 298 3 6 10 8 15 5 1 0 2 0 2-1l0 0 80-59c5-3 6-9 4-14-5-12-9-25-12-37-4-13-7-26-9-40-11-67-3-137 23-201 2-5 0-10-4-13l0 0-80-56c-5-4-12-2-16 3-1 0-1 1-1 2l0 0z m120 574l0 0c0 1 0 1 0 1 15 13 30 25 46 37 16 11 33 22 51 31 89 50 192 72 297 60 6-1 10-6 10-13 0-1-1-1-1-2l0 0-31-94c-2-5-8-8-13-7-13 0-27 0-40 0-14-1-27-2-40-4-68-11-133-40-186-84-4-3-10-3-14 0l0 0-79 58c-5 3-6 11-2 16 0 0 1 1 2 1l0 0z m588 65l0 0c0 0 1 0 1 0 17-10 34-21 50-32 16-12 31-25 46-38 74-69 127-160 148-262 2-6-2-12-9-13-1 0-1 0-2 0l0 0-100 1c-5 0-10 4-11 9-3 13-8 26-12 38-5 12-10 25-17 36-31 61-78 113-137 150-5 3-6 8-5 13l0 0 31 92c2 6 9 9 15 7 1 0 2-1 2-1l0 0z m244-535l0 0c0 0 0 0 0 0-4-20-9-39-15-57-7-19-14-37-22-55-44-92-114-170-205-221-6-3-13-1-16 4 0 1-1 2-1 2l0 0-30 94c-2 6 1 12 6 14 11 7 22 15 32 23 11 9 21 18 30 27 49 48 84 109 101 176 2 5 6 8 11 8l0 0 98-1c6 0 11-5 11-11 0-1 0-2 0-3l0 0z m-438-395l0 0c0 0 0 0 0 0-20-2-40-3-60-3-20 0-40 1-59 4-102 12-198 54-276 125-5 4-5 11 0 16 0 0 1 1 1 1l0 0 81 58c5 3 12 2 16-2 10-8 20-16 32-23 11-7 22-14 34-20 62-31 131-45 200-41 6 0 10-3 12-8l0 0 29-92c2-6-1-12-7-14-1-1-2-1-3-1l0 0z" horiz-adv-x="1000" />

<glyph glyph-name="spin3" unicode="&#xe832;" d="M494 850c-266 0-483-210-494-472-1-19 13-20 13-20l84 0c16 0 19 10 19 18 10 199 176 358 378 358 107 0 205-45 273-118l-58-57c-11-12-11-27 5-31l247-50c21-5 46 11 37 44l-58 227c-2 9-16 22-29 13l-65-60c-89 91-214 148-352 148z m409-508c-16 0-19-10-19-18-10-199-176-358-377-358-108 0-205 45-274 118l59 57c10 12 10 27-5 31l-248 50c-21 5-46-11-37-44l58-227c2-9 16-22 30-13l64 60c89-91 214-148 353-148 265 0 482 210 493 473 1 18-13 19-13 19l-84 0z" horiz-adv-x="1000" />

<glyph glyph-name="spin4" unicode="&#xe834;" d="M498 850c-114 0-228-39-320-116l0 0c173 140 428 130 588-31 134-134 164-332 89-495-10-29-5-50 12-68 21-20 61-23 84 0 3 3 12 15 15 24 71 180 33 393-112 539-99 98-228 147-356 147z m-409-274c-14 0-29-5-39-16-3-3-13-15-15-24-71-180-34-393 112-539 185-185 479-195 676-31l0 0c-173-140-428-130-589 31-134 134-163 333-89 495 11 29 6 50-12 68-11 11-27 17-44 16z" horiz-adv-x="1001" />

<glyph glyph-name="spin5" unicode="&#xe838;" d="M462 850c-6 0-11-5-11-11l0-183 0 0c0-6 5-11 11-11l69 0c1 0 1 0 1 0 7 0 12 5 12 11l0 183 0 0c0 6-5 11-12 11l-69 0c0 0 0 0-1 0z m250-47c-4 1-8-2-10-5l-91-158 0 0c-4-6-2-13 4-16l60-34c0-1 0-1 0-1 6-3 13-1 16 4l91 158c3 6 2 13-4 16l-61 35c-1 1-3 1-5 1z m-428-2c-2 0-4-1-6-2l-61-35c-5-3-7-10-4-16l91-157c0 0 0 0 0 0 3-6 10-8 16-5l61 35c5 4 7 11 4 16l-91 157c0 1 0 1 0 1-2 4-6 6-10 6z m620-163c-2 0-4 0-6-1l-157-91c0 0 0 0 0 0-6-3-8-10-5-16l35-61c4-5 11-7 16-4l157 91c1 0 1 0 1 0 6 3 7 11 4 16l-35 61c-2 4-6 6-10 5z m-810-4c-5 0-9-2-11-6l-35-61c-3-5-1-12 4-15l158-91 0 0c6-4 13-2 16 4l35 60c0 0 0 0 0 0 3 6 1 13-4 16l-158 91c-2 1-4 2-5 2z m712-235l0 0c-6 0-11-5-11-11l0-69c0-1 0-1 0-1 0-7 5-12 11-12l183 0 0 0c6 0 11 5 11 12l0 69c0 0 0 0 0 1 0 6-5 11-11 11l-183 0z m-794-5l0 0c-7 0-12-5-12-12l0-69c0 0 0 0 0-1 0-6 5-11 12-11l182 0 0 0c6 0 11 5 11 11l0 69c0 1 0 1 0 1 0 7-5 12-11 12l-182 0z m772-153c-4 0-8-2-10-6l-34-60c-1 0-1 0-1 0-3-6-1-13 4-16l158-91c6-3 13-1 16 4l35 61c3 5 1 12-4 15l-158 92 0 0c-2 1-4 1-6 1z m-566-5c-1 0-3 0-5-1l-157-91c0 0-1 0-1 0-5-3-7-10-4-16l35-61c3-5 10-7 16-4l157 91c0 0 0 0 0 0 6 3 8 10 5 16l-35 61c-3 3-7 6-11 5z m468-121c-2 0-4 0-6-1l-61-35c-5-4-7-11-4-16l91-157c0-1 0-1 0-1 3-6 11-7 16-4l61 35c5 3 7 10 4 16l-91 157c0 0 0 0 0 0-2 4-6 6-10 6z m-367-2c-4 0-8-2-10-6l-91-158c-3-6-1-13 4-16l61-35c5-3 12-1 15 4l92 158 0 0c3 6 1 13-5 16l-60 35c0 0 0 0 0 0-2 1-4 1-6 2z m149-58c-7 0-12-5-12-11l0-183 0 0c0-6 5-11 12-11l69 0c0 0 0 0 1 0 6 0 11 5 11 11l0 183 0 0c0 6-5 11-11 11l-69 0c-1 0-1 0-1 0z" horiz-adv-x="1000" />

<glyph glyph-name="spin6" unicode="&#xe839;" d="M855 9c-189-190-520-172-705 13-190 190-200 494-28 695 11 13 21 26 35 34 36 23 85 18 117-13 30-31 35-76 16-112-5-9-9-15-16-22-140-151-145-379-8-516 153-153 407-121 542 34 106 122 142 297 77 451-83 198-305 291-510 222l0 1c236 82 492-24 588-252 71-167 37-355-72-493-11-15-23-29-36-42z" horiz-adv-x="1000" />

<glyph glyph-name="firefox" unicode="&#xe840;" d="M504-137c-216 0-387 126-466 306-87 200-17 521 139 663l-6-156c8 9 68 12 78-1 32 62 136 109 220 110-32-26-106-124-99-174 40-13 103-13 136-15 10-6 8-40-12-68-27-36-97-49-97-49l8-106-77 38c-26-64 35-120 97-110 69 12 94 57 142 54 49-2 68-29 61-54-7-30-59-25-59-25-44-70-103-100-198-92 144-119 338-11 387 86 50 97 7 242-43 283 59-25 99-51 120-107 11 124-46 266-149 349 193-56 311-205 314-444 3-239-211-488-496-488z" horiz-adv-x="1000" />

<glyph glyph-name="chrome" unicode="&#xe841;" d="M498 850c-147-1-291-67-387-186l154-237c39 111 150 182 267 170l414-22c-42 84-108 157-196 208-79 46-166 67-252 67z m-416-226c-52-79-82-173-82-274 0-250 183-457 423-494l128 252c-116-22-233 39-281 146l-188 370z m885-94l-282-15c76-89 82-221 13-317l-226-347c94-6 190 15 278 66 216 125 304 387 217 613z m-467-11c-93 0-169-76-169-169s76-169 169-169 169 76 169 169-76 169-169 169z" horiz-adv-x="1000" />

<glyph glyph-name="opera" unicode="&#xe842;" d="M426-150c-568 0-568 1000 0 1000s567-1000 0-1000z m0 92c237 0 237 816 0 816s-238-816 0-816z" horiz-adv-x="851" />

<glyph glyph-name="ie" unicode="&#xe843;" d="M844 850c-81-1-181-46-281-106-239 35-498-103-509-386 60 93 224 257 367 301l0-13c-179-90-571-612-360-773 90-69 310 37 344 76 29-5 59-8 89-8 201 0 371 124 424 292l-301 0c-13-56-56-92-121-92-102 0-126 68-126 151l561 0c29 204-114 385-306 439 174 115 363 161 299-104l20 0c35 109 21 191-38 213-18 7-37 10-58 10-1 0-3 0-4 0z m-352-303c79 0 128-48 128-129l-252 0c0 77 46 129 124 129z m-367-422c58-83 149-145 256-171-77-58-226-84-266-52-48 40-36 124 10 223z" horiz-adv-x="944" />

<glyph glyph-name="crown" unicode="&#xe844;" d="M419 822c-39 0-71-32-71-72 0-40 32-72 71-72 39 0 74 32 74 72 0 40-35 72-74 72z m-48-222c-40-119-101-151-101-151s-52 145-109 231c-23-52-47-86-96-100-1-44 51-208 55-290l601 0c2 79 55 256 55 288-38 16-85 51-96 102-63-86-109-231-109-231s-61 32-101 151c-27-13-77-13-99 0z m-297 222c-40 0-74-32-74-72 0-40 34-72 74-72 39 0 70 32 70 72 0 40-31 72-70 72z m47-603l0-119 600 0c0 43 0 81 0 119z m644 603c-40 0-72-32-72-72 0-40 32-72 72-72 40 0 72 32 72 72 0 40-32 72-72 72z" horiz-adv-x="837" />

<glyph glyph-name="crown-plus" unicode="&#xe845;" d="M419 822c-39 0-71-32-71-72 0-40 32-72 71-72 39 0 74 32 74 72 0 40-35 72-74 72z m-48-222c-40-119-101-151-101-151s-52 145-109 231c-23-52-47-86-96-100-1-44 51-208 55-290l362 0 0 72 248 0c5 72 35 158 46 216-38 16-85 51-96 102-63-86-109-231-109-231s-61 32-101 151c-27-13-77-13-99 0z m-297 222c-40 0-74-32-74-72 0-40 34-72 74-72 39 0 70 32 70 72 0 40-31 72-70 72z m47-603l0-119 230 0 0 110 131 0 0 9z m644 603c-40 0-72-32-72-72 0-40 32-72 72-72 40 0 72 32 72 72 0 40-32 72-72 72z m-196-816c-37 0-107 0-146 0 0 31 0 102 0 138 49 0 94 0 146 0 0 49 0 98 0 146 24 0 85 0 138 0 0-46 0-95 0-146 46 0 93 0 146 0 0-45 0-101 0-138-43 0-98 0-146 0 0-48 0-103 0-146-52 0-99 0-138 0 0 52 0 123 0 146z" horiz-adv-x="853" />

<glyph glyph-name="crown-minus" unicode="&#xe846;" d="M419 822c-39 0-71-32-71-72 0-40 32-72 71-72 39 0 74 32 74 72 0 40-35 72-74 72z m-48-222c-40-119-101-151-101-151s-52 145-109 231c-23-52-47-86-96-100-1-44 51-208 55-290l601 0c2 79 55 256 55 288-38 16-85 51-96 102-63-86-109-231-109-231s-61 32-101 151c-27-13-77-13-99 0z m-297 222c-40 0-74-32-74-72 0-40 34-72 74-72 39 0 70 32 70 72 0 40-31 72-70 72z m47-603l0-119 230 0 0 110 370 0 0 9z m644 603c-40 0-72-32-72-72 0-40 32-72 72-72 40 0 72 32 72 72 0 40-32 72-72 72z m-342-816c0 32 0 106 0 143 123 0 152 0 430 0 0-46 0-105 0-143-113 0-333 0-430 0z" horiz-adv-x="853" />

<glyph glyph-name="marquee" unicode="&#xe847;" d="M0 850l0-143 143 0 0 143-143 0z m286 0l0-143 143 0 0 143-143 0z m285 0l0-143 143 0 0 143-143 0z m286 0l0-143 143 0 0 143-143 0z m-857-286l0-143 143 0 0 143-143 0z m857 0l0-143 143 0 0 143-143 0z m-857-285l0-143 143 0 0 143-143 0z m857 0l0-143 143 0 0 143-143 0z m-857-286l0-143 143 0 0 143-143 0z m286 0l0-143 143 0 0 143-143 0z m285 0l0-143 143 0 0 143-143 0z m286 0l0-143 143 0 0 143-143 0z" horiz-adv-x="1000" />

<glyph glyph-name="activity" unicode="&#xf230;" d="M625 6h-2a32 32 0 0 0-27 21l-224 586-125-276a31 31 0 0 0-28-18h-125a31 31 0 0 0 0 62h104l149 326a32 32 0 0 0 29 18 31 31 0 0 0 28-20l225-590 124 249a32 32 0 0 0 28 17h125a31 31 0 0 0 0-62h-106l-147-296a32 32 0 0 0-28-17z" horiz-adv-x="1000" />

<glyph glyph-name="address-book" unicode="&#xf231;" d="M325 169a30 30 0 0 1 19-6 31 31 0 0 1 25 12 203 203 0 0 0 325 0 32 32 0 0 1 44-6 31 31 0 0 1 6 44 265 265 0 0 1-107 84 156 156 0 1 1-211 0 265 265 0 0 1-107-84 31 31 0 0 1 6-44z m113 244a94 94 0 1 0 93-94 94 94 0 0 0-93 94z m375 343h-563a63 63 0 0 1-62-62v-78h-63a31 31 0 0 1 0-63h63v-94h-63a31 31 0 0 1 0-62h63v-94h-63a31 31 0 0 1 0-62h63v-94h-63a31 31 0 0 1 0-63h63v-78a63 63 0 0 1 62-62h563a63 63 0 0 1 62 62v688a63 63 0 0 1-62 62z m0-750h-563v688h563z" horiz-adv-x="1000" />

<glyph glyph-name="airplane" unicode="&#xf232;" d="M921 347l-295 148v168a125 125 0 0 1-250 0v-168l-296-148a32 32 0 0 1-17-28v-125a31 31 0 0 1 37-31l275 55v-74l-53-53a32 32 0 0 1-9-22v-125a31 31 0 0 1 13-26 31 31 0 0 1 30-3l144 58 145-58a31 31 0 0 1 11-3 32 32 0 0 1 18 6 31 31 0 0 1 14 26v125a31 31 0 0 1-9 22l-53 53v74l275-55a31 31 0 0 1 26 7 31 31 0 0 1 11 24v125a32 32 0 0 1-17 28z m-45-115l-275 55a31 31 0 0 1-26-6 31 31 0 0 1-12-25v-125a32 32 0 0 1 9-22l53-53v-66l-113 45a31 31 0 0 1-24 0l-113-45v66l54 53a32 32 0 0 1 9 22v125a31 31 0 0 1-38 31l-275-55v68l295 147a32 32 0 0 1 18 28v188a63 63 0 0 0 125 0v-188a32 32 0 0 1 17-28l295-147z" horiz-adv-x="1000" />

<glyph glyph-name="airplane-in-flight" unicode="&#xf233;" d="M875 6a31 31 0 0 0-31-31h-563a31 31 0 0 0 0 63h563a31 31 0 0 0 31-32z m94 313v-94a31 31 0 0 0-31-31h-689a156 156 0 0 0-149 111l-55 183a64 64 0 0 0 9 56 63 63 0 0 0 51 25h67a31 31 0 0 0 24-12l69-82h67l-35 105a63 63 0 0 0 59 83h66a31 31 0 0 0 23-11l162-177h206a156 156 0 0 0 156-156z m-63 0a94 94 0 0 1-93 94h-219a31 31 0 0 0-23 10l-163 177h-52l49-146a32 32 0 0 0-5-29 31 31 0 0 0-25-12h-125a31 31 0 0 0-24 11l-69 82h-53l55-183a93 93 0 0 1 90-67h657z" horiz-adv-x="1000" />

<glyph glyph-name="airplane-landing" unicode="&#xf234;" d="M969 6a31 31 0 0 0-31-31h-563a31 31 0 0 0 0 63h563a31 31 0 0 0 31-32z m-103 95l-689 194a157 157 0 0 0-114 150v205a63 63 0 0 0 82 60l52-18a32 32 0 0 0 18-15l57-105 72-23v101a63 63 0 0 0 82 60l53-18a29 29 0 0 0 17-14l119-208 177-49a156 156 0 0 0 114-150v-140a32 32 0 0 0-12-25 33 33 0 0 0-19-6z m-22 170a94 94 0 0 1-69 90l-189 53a31 31 0 0 0-19 14l-119 209-42 13v-144a31 31 0 0 0-13-25 30 30 0 0 0-27-4l-125 39a32 32 0 0 0-19 15l-56 106-41 13v-205a94 94 0 0 1 68-90l651-183z" horiz-adv-x="1000" />

<glyph glyph-name="airplane-takeoff" unicode="&#xf235;" d="M688 6a31 31 0 0 0-32-31h-562a31 31 0 0 0 0 63h562a31 31 0 0 0 32-32z m296 479a32 32 0 0 0-15-21l-592-344a155 155 0 0 0-185 21l-147 138a62 62 0 0 0-19 56 63 63 0 0 0 37 47l65 28a34 34 0 0 0 25 0l95-41 58 34-88 79a63 63 0 0 0 18 104l64 27a34 34 0 0 0 22 1l221-74 161 95a156 156 0 0 0 201-36l72-88a31 31 0 0 0 7-26z m-78 14l-50 61a94 94 0 0 1-120 21l-173-102a31 31 0 0 0-26-2l-223 74-53-23 120-108a32 32 0 0 0 10-27 31 31 0 0 0-16-23l-109-63a32 32 0 0 0-28-1l-97 41-53-22 147-139a93 93 0 0 1 111-12z" horiz-adv-x="1000" />

<glyph glyph-name="airplane-tilt" unicode="&#xf236;" d="M845 519a125 125 0 0 1-183 169 20 20 0 0 1-4-4l-104-110-325 118a31 31 0 0 1-32-7l-94-94a32 32 0 0 1-9-25 33 33 0 0 1 14-23l249-166-57-58h-81a32 32 0 0 1-22-9l-94-94a32 32 0 0 1-8-29 31 31 0 0 1 20-23l149-50 50-149a31 31 0 0 1 23-21l7 0a32 32 0 0 1 22 9l94 94a32 32 0 0 1 9 22v80l58 52 166-244a32 32 0 0 1 23-13 33 33 0 0 1 25 9l94 94a31 31 0 0 1 7 32l-118 325 116 109a25 25 0 0 1 5 6z m-51 37l-1-2-127-119a31 31 0 0 1-8-33l118-325-53-53-165 242a31 31 0 0 1-22 13h-4a32 32 0 0 1-21-8l-95-86a32 32 0 0 1-10-22v-81l-49-49-39 115a31 31 0 0 1-20 20l-115 39 49 49h81a32 32 0 0 1 22 9l94 94a32 32 0 0 1 9 25 33 33 0 0 1-15 23l-249 166 53 53 325-118a31 31 0 0 1 33 8l124 131 1 1a63 63 0 0 0 84-4 62 62 0 0 0 0-88z" horiz-adv-x="1000" />

<glyph glyph-name="airplay" unicode="&#xf237;" d="M524 245a31 31 0 0 1-48 0l-187-218a31 31 0 0 1 24-52h375a31 31 0 0 1 23 52z m-143-207l119 139 120-139z m525 562v-437a94 94 0 0 0-93-94h-63a31 31 0 0 0 0 62h63a31 31 0 0 1 31 32v437a31 31 0 0 1-31 31h-625a31 31 0 0 1-32-31v-437a31 31 0 0 1 32-32h62a31 31 0 0 0 0-62h-62a94 94 0 0 0-94 94v437a94 94 0 0 0 94 94h625a94 94 0 0 0 93-94z" horiz-adv-x="1000" />

<glyph glyph-name="alarm" unicode="&#xf238;" d="M719 381a31 31 0 0 0 0-62h-219a31 31 0 0 0-31 31v219a31 31 0 0 0 62 0v-188z m46 234a375 375 0 1 0-265 110 374 374 0 0 0 265-110z m48-265a312 312 0 1 1-92-221 311 311 0 0 1 92 221z m107 287l-133 133a31 31 0 1 1-44-44l133-133a31 31 0 0 1 22-9 32 32 0 0 1 22 9 31 31 0 0 1 0 44z m-663 133a31 31 0 0 1-44 0l-133-133a31 31 0 0 1 0-44 32 32 0 0 1 22-9 31 31 0 0 1 22 9l133 133a31 31 0 0 1 0 44z" horiz-adv-x="1000" />

<glyph glyph-name="alien" unicode="&#xf239;" d="M500 788a376 376 0 0 1-375-375c0-94 49-216 131-325s174-176 244-176 161 66 244 176 131 231 131 325a376 376 0 0 1-375 375z m194-662c-68-90-146-151-194-151s-126 61-194 151c-73 97-118 207-118 287a313 313 0 0 0 625 0c0-80-46-190-119-287z m-225 177v16a156 156 0 0 1-156 156 63 63 0 0 1-63-62v-16a156 156 0 0 1 156-156 63 63 0 0 1 63 62z m-156 94v16a94 94 0 0 0 93-94v-16a94 94 0 0 0-93 94z m375 78a156 156 0 0 1-157-156v-16a63 63 0 0 1 63-62 156 156 0 0 1 156 156v16a63 63 0 0 1-62 62z m0-78a94 94 0 0 0-94-94v16a94 94 0 0 0 94 94z m-94-266a31 31 0 0 0-31-31h-125a31 31 0 0 0 0 63h125a31 31 0 0 0 31-32z" horiz-adv-x="1000" />

<glyph glyph-name="align-bottom" unicode="&#xf23a;" d="M875 6a31 31 0 0 0-31-31h-688a31 31 0 0 0 0 63h688a31 31 0 0 0 31-32z m-344 157v375a63 63 0 0 0 63 62h156a63 63 0 0 0 63-62v-375a63 63 0 0 0-63-63h-156a63 63 0 0 0-63 63z m63 0h156v375h-156z m-406 0v531a63 63 0 0 0 62 62h156a63 63 0 0 0 63-62v-531a63 63 0 0 0-63-63h-156a63 63 0 0 0-62 63z m62 0h156v531h-156z" horiz-adv-x="1000" />

<glyph glyph-name="align-bottom-simple" unicode="&#xf23b;" d="M813-56a31 31 0 0 0-32-32h-562a31 31 0 0 0 0 63h562a31 31 0 0 0 32-31z m-500 156v594a63 63 0 0 0 62 62h250a63 63 0 0 0 63-62v-594a63 63 0 0 0-63-62h-250a63 63 0 0 0-62 62z m62 0h250v594h-250z" horiz-adv-x="1000" />

<glyph glyph-name="align-center-horizontal" unicode="&#xf23c;" d="M813 319h-282v62h188a63 63 0 0 1 62 63v156a63 63 0 0 1-62 63h-188v62a31 31 0 0 1-62 0v-62h-188a63 63 0 0 1-62-63v-156a63 63 0 0 1 62-63h188v-62h-281a63 63 0 0 1-63-63v-156a63 63 0 0 1 63-62h281v-63a31 31 0 0 1 62 0v63h282a63 63 0 0 1 62 62v156a63 63 0 0 1-62 63z m-532 281h438v-156h-438z m532-500h-625v156h625v-156z" horiz-adv-x="1000" />

<glyph glyph-name="align-center-horizontal-simple" unicode="&#xf23d;" d="M813 538h-282v125a31 31 0 0 1-62 0v-125h-281a63 63 0 0 1-63-63v-250a63 63 0 0 1 63-62h281v-125a31 31 0 0 1 62 0v125h282a63 63 0 0 1 62 62v250a63 63 0 0 1-62 63z m0-313h-625v250h625v-250z" horiz-adv-x="1000" />

<glyph glyph-name="align-center-vertical" unicode="&#xf23e;" d="M875 381h-62v188a63 63 0 0 1-63 62h-156a63 63 0 0 1-63-62v-188h-62v282a63 63 0 0 1-63 62h-156a63 63 0 0 1-62-62v-282h-63a31 31 0 0 1 0-62h63v-281a63 63 0 0 1 62-63h156a63 63 0 0 1 63 63v281h62v-188a63 63 0 0 1 63-62h156a63 63 0 0 1 63 62v188h62a31 31 0 0 1 0 62z m-469-343h-156v625h156z m344 93h-156v438h156z" horiz-adv-x="1000" />

<glyph glyph-name="align-center-vertical-simple" unicode="&#xf23f;" d="M813 381h-125v282a63 63 0 0 1-63 62h-250a63 63 0 0 1-62-62v-282h-125a31 31 0 0 1 0-62h125v-281a63 63 0 0 1 62-63h250a63 63 0 0 1 63 63v281h125a31 31 0 0 1 0 62z m-188-343h-250v625h250z" horiz-adv-x="1000" />

<glyph glyph-name="align-left" unicode="&#xf240;" d="M188 694v-688a31 31 0 0 0-63 0v688a31 31 0 0 0 63 0z m62-250v156a63 63 0 0 0 63 63h375a63 63 0 0 0 62-63v-156a63 63 0 0 0-62-63h-375a63 63 0 0 0-63 63z m63 0h375v156h-375z m593-188v-156a63 63 0 0 0-62-62h-531a63 63 0 0 0-63 62v156a63 63 0 0 0 63 63h531a63 63 0 0 0 62-63z m-62-156v156h-531v-156z" horiz-adv-x="1000" />

<glyph glyph-name="align-left-simple" unicode="&#xf241;" d="M156 631v-562a31 31 0 0 0-62 0v562a31 31 0 0 0 62 0z m782-156v-250a63 63 0 0 0-63-62h-594a63 63 0 0 0-62 62v250a63 63 0 0 0 62 63h594a63 63 0 0 0 63-63z m-63-250v250h-594v-250z" horiz-adv-x="1000" />

<glyph glyph-name="align-right" unicode="&#xf242;" d="M875 694v-688a31 31 0 0 0-62 0v688a31 31 0 0 0 62 0z m-125-94v-156a63 63 0 0 0-62-63h-375a63 63 0 0 0-63 63v156a63 63 0 0 0 63 63h375a63 63 0 0 0 62-63z m-62 0h-375v-156h375z m62-344v-156a63 63 0 0 0-62-62h-532a63 63 0 0 0-62 62v156a63 63 0 0 0 62 63h532a63 63 0 0 0 62-63z m-62 0h-532v-156h532z" horiz-adv-x="1000" />

<glyph glyph-name="align-right-simple" unicode="&#xf243;" d="M906 631v-562a31 31 0 0 0-62 0v562a31 31 0 0 0 62 0z m-125-156v-250a63 63 0 0 0-62-62h-594a63 63 0 0 0-62 62v250a63 63 0 0 0 62 63h594a63 63 0 0 0 62-63z m-62 0h-594v-250h594z" horiz-adv-x="1000" />

<glyph glyph-name="align-top" unicode="&#xf244;" d="M875 694a31 31 0 0 0-31-31h-688a31 31 0 0 0 0 62h688a31 31 0 0 0 31-31z m-62-156v-375a63 63 0 0 0-63-63h-156a63 63 0 0 0-63 63v375a63 63 0 0 0 63 62h156a63 63 0 0 0 63-62z m-63 0h-156v-375h156z m-281 0v-532a63 63 0 0 0-63-62h-156a63 63 0 0 0-62 62v532a63 63 0 0 0 62 62h156a63 63 0 0 0 63-62z m-63 0h-156v-532h156z" horiz-adv-x="1000" />

<glyph glyph-name="align-top-simple" unicode="&#xf245;" d="M813 725a31 31 0 0 0-32-31h-562a31 31 0 0 0 0 62h562a31 31 0 0 0 32-31z m-125-156v-594a63 63 0 0 0-63-63h-250a63 63 0 0 0-62 63v594a63 63 0 0 0 62 62h250a63 63 0 0 0 63-62z m-63 0h-250v-594h250z" horiz-adv-x="1000" />

<glyph glyph-name="anchor" unicode="&#xf246;" d="M844 319a31 31 0 0 1-31-31 156 156 0 0 0-157-157 187 187 0 0 1-125-48v298h125a31 31 0 0 1 0 63h-125v98a109 109 0 1 1-62 0v-98h-125a31 31 0 0 1 0-63h125v-298a187 187 0 0 1-125 48 156 156 0 0 0-156 157 31 31 0 0 1-63 0 219 219 0 0 1 219-219 125 125 0 0 0 125-125 31 31 0 0 1 62 0 125 125 0 0 0 125 125 219 219 0 0 1 219 219 31 31 0 0 1-31 31z m-391 328a47 47 0 1 0 47-47 47 47 0 0 0-47 47z" horiz-adv-x="1000" />

<glyph glyph-name="anchor-simple" unicode="&#xf247;" d="M875 413h-94a31 31 0 0 1 0-63h61a344 344 0 0 0-311-311v440a125 125 0 1 1-62 0v-440a344 344 0 0 0-311 311h61a31 31 0 0 1 0 63h-94a31 31 0 0 1-31-32 406 406 0 0 1 812 0 31 31 0 0 1-31 32z m-437 187a63 63 0 1 0 62-62 63 63 0 0 0-62 62z" horiz-adv-x="1000" />

<glyph glyph-name="android-logo" unicode="&#xf248;" d="M688 241a47 47 0 1 0-47 47 47 47 0 0 0 47-47z m-329 47a47 47 0 1 1 47-47 47 47 0 0 1-47 47z m579-94v-94a63 63 0 0 0-63-62h-750a63 63 0 0 0-62 62v90a443 443 0 0 0 138 321l-98 98a32 32 0 0 0 44 45l102-103a436 436 0 0 0 503 1l101 102a32 32 0 0 0 44-45l-97-97 9-8a434 434 0 0 0 129-310z m-63 0a372 372 0 0 1-110 265 385 385 0 0 1-30 27 0 0 0 0 1-1 0 371 371 0 0 1-234 83h-1c-206-1-374-171-374-379v-90h750z" horiz-adv-x="1000" />

<glyph glyph-name="angular-logo" unicode="&#xf249;" d="M887 598l-375 156a32 32 0 0 1-24 0l-375-156a32 32 0 0 1-19-33l63-469a32 32 0 0 1 16-24l313-156a33 33 0 0 1 28 0l313 156a32 32 0 0 1 16 24l63 469a32 32 0 0 1-19 33z m-103-477l-284-143-284 143-57 428 341 142 341-142z m-312 399l-141-281a31 31 0 0 1 57-28l32 66h160l33-66a32 32 0 0 1 28-17 37 37 0 0 1 14 3 32 32 0 0 1 14 42l-141 281a32 32 0 0 1-56 0z m76-180h-96l48 96z" horiz-adv-x="1000" />

<glyph glyph-name="aperture" unicode="&#xf24a;" d="M906 350a407 407 0 0 1-406 406 407 407 0 0 1-406-406 407 407 0 0 1 406-406h0a407 407 0 0 1 406 406z m-477-84l-37 104 71 83 108-19 37-103-71-84z m-237 237l200-37-210-247a344 344 0 0 0 10 284z m626-22a344 344 0 0 0-10-284l-200 37z m-32 59l-131-155-110 306a339 339 0 0 0 198-98 346 346 0 0 0 43-53z m-308 153l69-191-319 58a388 388 0 0 0 29 33 340 340 0 0 0 221 100z m-264-533l131 155 110-306a339 339 0 0 0-198 98 346 346 0 0 0-43 53z m308-153l-68 191 89-16h1l228-42a388 388 0 0 0-29-33 340 340 0 0 0-221-100z" horiz-adv-x="1000" />

<glyph glyph-name="app-store-logo" unicode="&#xf24b;" d="M251 53l-36-63a32 32 0 0 0-27-15 34 34 0 0 0-16 4 32 32 0 0 0-11 43l37 63a31 31 0 1 0 53-32z m655 172h-186l-120 203a31 31 0 0 1-43 11 31 31 0 0 1-11-42l240-407a32 32 0 0 1 27-15 34 34 0 0 1 16 4 32 32 0 0 1 11 43l-83 141h149a31 31 0 0 1 0 62z m-349 0h-204l174 294h0l94 158a31 31 0 0 1-54 32l-67-112-67 113a31 31 0 1 1-54-32l85-143-183-310h-187a31 31 0 0 1 0-62h463a31 31 0 0 1 0 62z" horiz-adv-x="1000" />

<glyph glyph-name="app-window" unicode="&#xf24c;" d="M844 694h-688a63 63 0 0 1-62-63v-562a63 63 0 0 1 62-63h688a63 63 0 0 1 62 63v562a63 63 0 0 1-62 63z m0-625h-688v562h688v-562z m-531 453a47 47 0 1 0-47 47 47 47 0 0 0 47-47z m156 0a47 47 0 1 0-47 47 47 47 0 0 0 47-47z" horiz-adv-x="1000" />

<glyph glyph-name="apple-logo" unicode="&#xf24d;" d="M511 734a157 157 0 0 0 145 100 31 31 0 0 0 0-62 94 94 0 0 1-87-60 31 31 0 0 0-29-20 36 36 0 0 0-11 2 31 31 0 0 0-18 40z m371-532c-54-134-153-227-241-227h-282c-64 0-135 50-191 133a527 527 0 0 0-90 289 266 266 0 0 0 422 215 266 266 0 0 0 365-51 32 32 0 0 0-8-46 156 156 0 0 1 10-274 31 31 0 0 0 15-39z m-68-1a219 219 0 0 0-20 346 203 203 0 0 1-272 2 32 32 0 0 0-43-1 204 204 0 0 1-338-151c0-195 134-359 218-359h282c56 0 127 68 173 163z" horiz-adv-x="1000" />

<glyph glyph-name="apple-podcasts-logo" unicode="&#xf24e;" d="M598 304a125 125 0 1 1-196 0 79 79 0 0 1-23-20 93 93 0 0 1-20-77l38-188a94 94 0 0 1 92-75h22a94 94 0 0 1 92 75l38 188a93 93 0 0 1-20 77 79 79 0 0 1-23 20z m-98 140a63 63 0 1 0-62-63 63 63 0 0 0 62 63z m79-225l-37-188a31 31 0 0 0-31-25h-22a31 31 0 0 0-31 25l-37 188a32 32 0 0 0 6 26 32 32 0 0 0 24 11h98a32 32 0 0 0 24-11 32 32 0 0 0 6-26z m140 131a219 219 0 1 1-423-79 31 31 0 0 0-18-40 28 28 0 0 0-11-3 31 31 0 0 0-29 20 275 275 0 0 0-19 102 281 281 0 0 0 562 0 276 276 0 0 0-19-102 31 31 0 0 0-58 23 220 220 0 0 1 15 79z m187 0a406 406 0 0 0-187-343 34 34 0 0 0-17-4 31 31 0 0 0-17 57 344 344 0 1 1-370 0 31 31 0 0 0-34-53 406 406 0 1 0 625 343z" horiz-adv-x="1000" />

<glyph glyph-name="archive" unicode="&#xf24f;" d="M875 663h-750a63 63 0 0 1-62-63v-94a63 63 0 0 1 62-62v-344a63 63 0 0 1 63-62h625a63 63 0 0 1 62 62v344a63 63 0 0 1 63 62v94a63 63 0 0 1-63 63z m-62-563h-625v344h625z m62 406h-750v94h750v-94z m-500-187a31 31 0 0 0 31 31h188a31 31 0 0 0 0-62h-188a31 31 0 0 0-31 31z" horiz-adv-x="1000" />

<glyph glyph-name="archive-box" unicode="&#xf250;" d="M872 583l-63 125a32 32 0 0 1-28 17h-562a32 32 0 0 1-28-17l-63-125a35 35 0 0 1-3-14v-531a63 63 0 0 1 63-63h625a63 63 0 0 1 62 63v531a35 35 0 0 1-3 14z m-634 80h524l31-63h-586z m575-625h-625v500h625v-500z m-158 248a31 31 0 0 0 0-44l-133-133a32 32 0 0 0-44 0l-133 133a31 31 0 0 0 45 44l79-79v237a31 31 0 0 0 62 0v-237l80 79a31 31 0 0 0 44 0z" horiz-adv-x="1000" />

<glyph glyph-name="archive-tray" unicode="&#xf251;" d="M813 725h-625a63 63 0 0 1-63-62v-625a63 63 0 0 1 63-63h625a63 63 0 0 1 62 63v625a63 63 0 0 1-62 62z m0-62v-407h-113a62 62 0 0 1-44-18l-75-75h-162l-75 75a62 62 0 0 1-44 18h-112v407z m0-625h-625v156h112l75-76a62 62 0 0 1 44-18h162a62 62 0 0 1 44 18l75 76h113v-156z m-468 329a31 31 0 0 0 45 44l79-79v237a31 31 0 0 0 62 0v-237l80 79a31 31 0 0 0 44-44l-133-133h0l-2-2h-1l-2-1c0 0 0 0 0 0l-2-2h-1l-2-1h0l-3-1h-18l-3 1h0l-2 1h-1l-2 2c0 0 0 0 0 0l-2 1h-1l-1 2h-1z" horiz-adv-x="1000" />

<glyph glyph-name="armchair" unicode="&#xf252;" d="M844 503v66a156 156 0 0 1-156 156h-375a156 156 0 0 1-157-156v-66a156 156 0 0 1 0-306v-128a63 63 0 0 1 63-63h562a63 63 0 0 1 63 63v128a156 156 0 0 1 0 306z m-531 160h375a94 94 0 0 0 93-94v-66a157 157 0 0 1-125-153h-312a157 157 0 0 1-125 153v66a94 94 0 0 0 94 94z m501-407h-1a31 31 0 0 1-32-31v-156h-562v156a31 31 0 0 1-31 31h-2a94 94 0 1 0 95 94v-156a31 31 0 0 1 63 0v94h312v-94a31 31 0 0 1 63 0v156a94 94 0 1 0 95-94z" horiz-adv-x="1000" />

<glyph glyph-name="arrow-arc-left" unicode="&#xf253;" d="M906 131a31 31 0 0 0-62 0 344 344 0 0 1-587 243l-72-71h175a31 31 0 0 0 0-63h-250a31 31 0 0 0-31 32v250a31 31 0 0 0 62 0v-175l72 71a406 406 0 0 0 574 0 402 402 0 0 0 119-287z" horiz-adv-x="1000" />

<glyph glyph-name="arrow-arc-right" unicode="&#xf254;" d="M922 522v-250a31 31 0 0 0-32-32h-250a31 31 0 0 0 0 63h175l-72 71a344 344 0 0 1-587-243 31 31 0 0 0-62 0 407 407 0 0 0 406 407 402 402 0 0 0 287-120l72-71v175a31 31 0 0 0 63 0z" horiz-adv-x="1000" />

<glyph glyph-name="arrow-bend-double-up-left" unicode="&#xf255;" d="M335 279a32 32 0 0 0 0-45 32 32 0 0 0-45 0l-187 188a32 32 0 0 0 0 44l187 188a32 32 0 0 0 45-45l-166-165z m165 196h-112l134 134a32 32 0 1 1-44 45l-188-188a32 32 0 0 1 0-44l188-188a32 32 0 0 1 44 0 32 32 0 0 1 0 45l-134 134h112a344 344 0 0 0 344-344 31 31 0 0 1 62 0 407 407 0 0 1-406 406z" horiz-adv-x="1000" />

<glyph glyph-name="arrow-bend-double-up-right" unicode="&#xf256;" d="M897 422l-187-188a32 32 0 0 0-45 0 32 32 0 0 0 0 45l166 165-166 165a32 32 0 0 0 45 45l187-188a32 32 0 0 0 0-44z m-187 44l-188 188a32 32 0 0 1-44-45l134-134h-112a407 407 0 0 1-406-406 31 31 0 0 1 62 0 344 344 0 0 0 344 344h112l-134-134a32 32 0 0 1 0-45 32 32 0 0 1 44 0l188 188a32 32 0 0 1 0 44z" horiz-adv-x="1000" />

<glyph glyph-name="arrow-bend-down-left" unicode="&#xf257;" d="M906 631a407 407 0 0 0-406-406h-300l135-134a32 32 0 0 0 0-44 32 32 0 0 0-45 0l-187 187a32 32 0 0 0 0 45l187 187a32 32 0 0 0 45-44l-135-134h300a344 344 0 0 1 344 343 31 31 0 0 0 62 0z" horiz-adv-x="1000" />

<glyph glyph-name="arrow-bend-down-right" unicode="&#xf258;" d="M897 234l-187-187a32 32 0 0 0-45 0 32 32 0 0 0 0 44l135 134h-300a407 407 0 0 0-406 406 31 31 0 0 0 62 0 344 344 0 0 1 344-343h300l-135 134a32 32 0 0 0 45 44l187-187a32 32 0 0 0 0-45z" horiz-adv-x="1000" />

<glyph glyph-name="arrow-bend-left-down" unicode="&#xf259;" d="M813 725a31 31 0 0 0-32-31 344 344 0 0 1-343-344v-300l134 135a32 32 0 0 0 44-45l-187-187a32 32 0 0 0-45 0l-187 187a32 32 0 0 0 44 45l134-135v300a407 407 0 0 0 406 406 31 31 0 0 0 32-31z" horiz-adv-x="1000" />

<glyph glyph-name="arrow-bend-left-up" unicode="&#xf25a;" d="M813-25a31 31 0 0 0-32-31 407 407 0 0 0-406 406v300l-134-135a32 32 0 0 0-44 45l187 187a32 32 0 0 0 45 0l187-187a32 32 0 0 0 0-45 32 32 0 0 0-44 0l-134 135v-300a344 344 0 0 1 343-344 31 31 0 0 0 32-31z" horiz-adv-x="1000" />

<glyph glyph-name="arrow-bend-right-down" unicode="&#xf25b;" d="M804 140l-188-187a32 32 0 0 0-44 0l-188 187a32 32 0 0 0 45 45l134-135v300a344 344 0 0 1-344 344 31 31 0 0 0 0 62 407 407 0 0 0 406-406v-300l134 135a32 32 0 0 0 45-45z" horiz-adv-x="1000" />

<glyph glyph-name="arrow-bend-right-up" unicode="&#xf25c;" d="M804 515a32 32 0 0 0-45 0l-134 135v-300a407 407 0 0 0-406-406 31 31 0 0 0 0 62 344 344 0 0 1 344 344v300l-134-135a32 32 0 0 0-45 45l188 187a32 32 0 0 0 44 0l188-187a32 32 0 0 0 0-45z" horiz-adv-x="1000" />

<glyph glyph-name="arrow-bend-up-left" unicode="&#xf25d;" d="M906 69a31 31 0 0 0-62 0 344 344 0 0 1-344 344h-300l135-134a32 32 0 0 0 0-45 32 32 0 0 0-45 0l-187 188a32 32 0 0 0 0 44l187 188a32 32 0 0 0 45-45l-135-134h300a407 407 0 0 0 406-406z" horiz-adv-x="1000" />

<glyph glyph-name="arrow-bend-up-right" unicode="&#xf25e;" d="M897 422l-187-188a32 32 0 0 0-45 0 32 32 0 0 0 0 45l135 134h-300a344 344 0 0 1-344-344 31 31 0 0 0-62 0 407 407 0 0 0 406 406h300l-135 134a32 32 0 0 0 45 45l187-188a32 32 0 0 0 0-44z" horiz-adv-x="1000" />

<glyph glyph-name="arrow-circle-down" unicode="&#xf25f;" d="M500 756a406 406 0 1 1 406-406 407 407 0 0 1-406 406z m0-750a344 344 0 1 0 344 344 344 344 0 0 0-344-344z m155 342a31 31 0 0 0 0-44l-133-132a32 32 0 0 0-44 0l-133 132a31 31 0 0 0 45 44l79-79v237a31 31 0 0 0 62 0v-237l80 79a31 31 0 0 0 44 0z" horiz-adv-x="1000" />

<glyph glyph-name="arrow-circle-down-left" unicode="&#xf260;" d="M500 756a406 406 0 1 1 406-406 407 407 0 0 1-406 406z m0-750a344 344 0 1 0 344 344 344 344 0 0 0-344-344z m132 476a32 32 0 0 0 0-45l-166-165h112a31 31 0 0 0 0-63h-187a31 31 0 0 0-32 32v187a31 31 0 0 0 63 0v-112l165 166a32 32 0 0 0 45 0z" horiz-adv-x="1000" />

<glyph glyph-name="arrow-circle-down-right" unicode="&#xf261;" d="M787 637a406 406 0 1 1 0-574 406 406 0 0 1 0 574z m-44-530a344 344 0 1 0 0 486 344 344 0 0 0 0-486z m-102 321v-187a31 31 0 0 0-32-32h-187a31 31 0 0 0 0 63h112l-166 165a32 32 0 0 0 45 45l165-166v112a31 31 0 0 0 63 0z" horiz-adv-x="1000" />

<glyph glyph-name="arrow-circle-left" unicode="&#xf262;" d="M500 756a406 406 0 1 1 406-406 407 407 0 0 1-406 406z m0-750a344 344 0 1 0 344 344 344 344 0 0 0-344-344z m188 344a31 31 0 0 0-32-31h-237l79-79a31 31 0 0 0 0-45 31 31 0 0 0-22-9 30 30 0 0 0-22 9l-132 133a32 32 0 0 0 0 44l132 133a31 31 0 0 0 44-44l-79-80h237a31 31 0 0 0 32-31z" horiz-adv-x="1000" />

<glyph glyph-name="arrow-circle-right" unicode="&#xf263;" d="M500 756a406 406 0 1 1 406-406 407 407 0 0 1-406 406z m0-750a344 344 0 1 0 344 344 344 344 0 0 0-344-344z m179 366a32 32 0 0 0 0-44l-133-133a30 30 0 0 0-22-9 31 31 0 0 0-22 9 31 31 0 0 0 0 45l79 79h-237a31 31 0 0 0 0 62h237l-79 80a31 31 0 0 0 44 44z" horiz-adv-x="1000" />

<glyph glyph-name="arrow-circle-up" unicode="&#xf264;" d="M500 756a406 406 0 1 1 406-406 407 407 0 0 1-406 406z m0-750a344 344 0 1 0 344 344 344 344 0 0 0-344-344z m155 390a31 31 0 0 0 0-44 31 31 0 0 0-23-9 30 30 0 0 0-21 9l-80 79v-237a31 31 0 0 0-62 0v237l-79-79a31 31 0 0 0-45 44l133 133a32 32 0 0 0 44 0z" horiz-adv-x="1000" />

<glyph glyph-name="arrow-circle-up-left" unicode="&#xf265;" d="M500 756a406 406 0 1 1 406-406 407 407 0 0 1-406 406z m0-750a344 344 0 1 0 344 344 344 344 0 0 0-344-344z m132 257a32 32 0 0 0 0-45 32 32 0 0 0-45 0l-165 166v-112a31 31 0 0 0-63 0v187a31 31 0 0 0 32 32h187a31 31 0 0 0 0-63h-112z" horiz-adv-x="1000" />

<glyph glyph-name="arrow-circle-up-right" unicode="&#xf266;" d="M500 756a406 406 0 1 1 406-406 407 407 0 0 1-406 406z m0-750a344 344 0 1 0 344 344 344 344 0 0 0-344-344z m141 453v-187a31 31 0 0 0-63 0v112l-165-166a32 32 0 0 0-45 0 32 32 0 0 0 0 45l166 165h-112a31 31 0 0 0 0 63h187a31 31 0 0 0 32-32z" horiz-adv-x="1000" />

<glyph glyph-name="arrow-clockwise" unicode="&#xf267;" d="M907 648v-187a31 31 0 0 0-31-32h-188a31 31 0 0 0 0 63h112l-79 79a313 313 0 1 1 0-442 31 31 0 0 0 44 0 31 31 0 0 0 0-44 375 375 0 1 0 0 530l80-79v112a31 31 0 1 0 62 0z" horiz-adv-x="1000" />

<glyph glyph-name="arrow-counter-clockwise" unicode="&#xf268;" d="M765 85a375 375 0 0 0-530 0 31 31 0 0 0 0 44 31 31 0 0 0 44 0 313 313 0 1 1 0 442l-79-79h112a31 31 0 0 0 0-63h-188a31 31 0 0 0-31 32v187a31 31 0 1 0 63 0v-112l79 79a375 375 0 0 0 530-530z" horiz-adv-x="1000" />

<glyph glyph-name="arrow-down" unicode="&#xf269;" d="M804 265l-282-281a32 32 0 0 0-44 0l-281 281a32 32 0 0 0 44 45l228-228v612a31 31 0 0 0 62 0v-612l228 228a32 32 0 0 0 45-45z" horiz-adv-x="1000" />

<glyph glyph-name="arrow-down-left" unicode="&#xf26a;" d="M772 578l-447-447h331a31 31 0 0 0 0-62h-406a31 31 0 0 0-31 31v406a31 31 0 0 0 62 0v-331l447 447a32 32 0 0 0 44-44z" horiz-adv-x="1000" />

<glyph glyph-name="arrow-down-right" unicode="&#xf26b;" d="M781 506v-406a31 31 0 0 0-31-31h-406a31 31 0 0 0 0 62h331l-447 447a32 32 0 0 0 44 44l447-447v331a31 31 0 0 0 62 0z" horiz-adv-x="1000" />

<glyph glyph-name="arrow-elbow-down-left" unicode="&#xf26c;" d="M781 725v-562a31 31 0 0 0-31-32h-487l134-134a32 32 0 0 0 0-44 32 32 0 0 0-44 0l-188 187a32 32 0 0 0 0 45l188 187a32 32 0 0 0 44-44l-134-134h456v531a31 31 0 0 0 62 0z" horiz-adv-x="1000" />

<glyph glyph-name="arrow-elbow-down-right" unicode="&#xf26d;" d="M835 140l-188-187a32 32 0 0 0-44 0 32 32 0 0 0 0 44l134 134h-487a31 31 0 0 0-31 32v562a31 31 0 0 0 62 0v-531h456l-134 134a32 32 0 0 0 44 44l188-187a32 32 0 0 0 0-45z" horiz-adv-x="1000" />

<glyph glyph-name="arrow-elbow-left" unicode="&#xf26e;" d="M929 453l-375-375a32 32 0 0 0-45 0l-384 384v-206a31 31 0 0 0-62 0v282a31 31 0 0 0 31 31h281a31 31 0 0 0 0-63h-206l362-362 353 353a32 32 0 0 0 45-44z" horiz-adv-x="1000" />

<glyph glyph-name="arrow-elbow-left-down" unicode="&#xf26f;" d="M906 600a31 31 0 0 0-31-31h-531v-456l134 134a32 32 0 1 0 44-44l-187-188a32 32 0 0 0-45 0l-187 188a32 32 0 0 0 44 44l134-134v487a31 31 0 0 0 32 31h562a31 31 0 0 0 31-31z" horiz-adv-x="1000" />

<glyph glyph-name="arrow-elbow-left-up" unicode="&#xf270;" d="M906 100a31 31 0 0 0-31-31h-562a31 31 0 0 0-32 31v487l-134-134a32 32 0 0 0-44 44l187 188a32 32 0 0 0 45 0l187-188a32 32 0 0 0 0-44 32 32 0 0 0-44 0l-134 134v-456h531a31 31 0 0 0 31-31z" horiz-adv-x="1000" />

<glyph glyph-name="arrow-elbow-right" unicode="&#xf271;" d="M938 538v-282a31 31 0 0 0-63 0v206l-384-384a32 32 0 0 0-44 0l-375 375a32 32 0 0 0 44 44l353-353 362 362h-206a31 31 0 0 0 0 63h281a31 31 0 0 0 32-31z" horiz-adv-x="1000" />

<glyph glyph-name="arrow-elbow-right-down" unicode="&#xf272;" d="M897 203l-187-188a32 32 0 0 0-45 0l-187 188a32 32 0 0 0 44 44l134-134v456h-531a31 31 0 0 0 0 62h563a31 31 0 0 0 31-31v-487l134 134a32 32 0 0 0 44-44z" horiz-adv-x="1000" />

<glyph glyph-name="arrow-elbow-right-up" unicode="&#xf273;" d="M897 453a32 32 0 0 0-44 0l-134 134v-487a31 31 0 0 0-31-31h-563a31 31 0 0 0 0 62h531v456l-134-134a32 32 0 0 0-44 44l187 188a32 32 0 0 0 45 0l187-188a32 32 0 0 0 0-44z" horiz-adv-x="1000" />

<glyph glyph-name="arrow-elbow-up-left" unicode="&#xf274;" d="M781 538v-563a31 31 0 0 0-62 0v531h-456l134-134a32 32 0 0 0 0-44 32 32 0 0 0-44 0l-188 187-2 2 0 1-2 2c0 0 0 1 0 1l-1 1c0 1-1 1-1 2l0 1c0 1-1 1-1 2l-1 1a3 3 0 0 1 0 2v1a4 4 0 0 0 0 2 2 2 0 0 1-1 1v7a2 2 0 0 1 1 1 4 4 0 0 0 0 2v1a3 3 0 0 1 0 2l1 1c0 0 1 1 1 2l0 1c0 0 1 1 1 1l1 2c0 0 0 0 0 1l2 1 0 1 2 2 188 188a32 32 0 1 0 44-45l-134-133h487a31 31 0 0 0 31-31z" horiz-adv-x="1000" />

<glyph glyph-name="arrow-elbow-up-right" unicode="&#xf275;" d="M835 515l-188-187a32 32 0 0 0-44 0 32 32 0 0 0 0 44l134 134h-456v-531a31 31 0 0 0-62 0v563a31 31 0 0 0 31 31h487l-134 134a32 32 0 0 0 44 44l188-187a32 32 0 0 0 0-45z" horiz-adv-x="1000" />

<glyph glyph-name="arrow-fat-down" unicode="&#xf276;" d="M904 331a31 31 0 0 1-29 19h-156v313a63 63 0 0 1-63 62h-312a63 63 0 0 1-63-62v-313h-156a31 31 0 0 1-29-19 33 33 0 0 1 7-34l375-376a32 32 0 0 1 44 0l375 376a33 33 0 0 1 7 34z m-404-343l-300 300h113a31 31 0 0 1 31 31v344h312v-344a31 31 0 0 1 32-31h112z" horiz-adv-x="1000" />

<glyph glyph-name="arrow-fat-left" unicode="&#xf277;" d="M813 569h-313v156a31 31 0 0 1-19 29 33 33 0 0 1-34-7l-375-375a32 32 0 0 1 0-44l375-375a32 32 0 0 1 22-9 33 33 0 0 1 12 2 31 31 0 0 1 19 29v156h313a63 63 0 0 1 62 63v312a63 63 0 0 1-62 63z m0-375h-344a31 31 0 0 1-31-31v-113l-300 300 300 300v-112a31 31 0 0 1 31-32h344z" horiz-adv-x="1000" />

<glyph glyph-name="arrow-fat-line-down" unicode="&#xf278;" d="M904 331a31 31 0 0 1-29 19h-156v219a31 31 0 0 1-31 31h-375a31 31 0 0 1-32-31v-219h-156a31 31 0 0 1-29-19 33 33 0 0 1 7-34l375-376a32 32 0 0 1 44 0l375 376a33 33 0 0 1 7 34z m-404-343l-300 300h113a31 31 0 0 1 31 31v219h312v-219a31 31 0 0 1 32-31h112z m-219 706a31 31 0 0 0 32 31h375a31 31 0 0 0 0-62h-375a31 31 0 0 0-32 31z" horiz-adv-x="1000" />

<glyph glyph-name="arrow-fat-line-left" unicode="&#xf279;" d="M719 569h-219v156a31 31 0 0 1-19 29 33 33 0 0 1-34-7l-375-375a32 32 0 0 1 0-44l375-375a32 32 0 0 1 22-9 33 33 0 0 1 12 2 31 31 0 0 1 19 29v156h219a31 31 0 0 1 31 32v375a31 31 0 0 1-31 31z m-31-375h-219a31 31 0 0 1-31-31v-113l-300 300 300 300v-112a31 31 0 0 1 31-32h219z m187 344v-375a31 31 0 0 0-62 0v375a31 31 0 0 0 62 0z" horiz-adv-x="1000" />

<glyph glyph-name="arrow-fat-line-right" unicode="&#xf27a;" d="M929 372l-375 375a33 33 0 0 1-35 7 31 31 0 0 1-19-29v-156h-219a31 31 0 0 1-31-31v-375a31 31 0 0 1 31-32h219v-156a31 31 0 0 1 19-29 33 33 0 0 1 12-2 32 32 0 0 1 23 9l375 375a32 32 0 0 1 0 44z m-366-322v113a31 31 0 0 1-32 31h-218v312h218a31 31 0 0 1 32 32v112l299-300z m-375 488v-375a31 31 0 0 0-63 0v375a31 31 0 0 0 63 0z" horiz-adv-x="1000" />

<glyph glyph-name="arrow-fat-line-up" unicode="&#xf27b;" d="M897 404l-375 375a32 32 0 0 1-44 0l-375-375a33 33 0 0 1-7-35 31 31 0 0 1 29-19h156v-219a31 31 0 0 1 32-31h375a31 31 0 0 1 31 31v219h156a31 31 0 0 1 29 19 33 33 0 0 1-7 35z m-209 9a31 31 0 0 1-32-32v-218h-312v218a31 31 0 0 1-31 32h-113l300 299 300-299z m31-407a31 31 0 0 0-31-31h-375a31 31 0 0 0 0 63h375a31 31 0 0 0 31-32z" horiz-adv-x="1000" />

<glyph glyph-name="arrow-fat-lines-down" unicode="&#xf27c;" d="M904 331a31 31 0 0 1-29 19h-156v94a31 31 0 0 1-31 31h-375a31 31 0 0 1-32-31v-94h-156a31 31 0 0 1-29-19 33 33 0 0 1 7-34l375-376a32 32 0 0 1 44 0l375 376a33 33 0 0 1 7 34z m-404-343l-300 300h113a31 31 0 0 1 31 31v94h312v-94a31 31 0 0 1 32-31h112z m-219 706a31 31 0 0 0 32 31h375a31 31 0 0 0 0-62h-375a31 31 0 0 0-32 31z m0-125a31 31 0 0 0 32 31h375a31 31 0 0 0 0-62h-375a31 31 0 0 0-32 31z" horiz-adv-x="1000" />

<glyph glyph-name="arrow-fat-lines-left" unicode="&#xf27d;" d="M594 569h-94v156a31 31 0 0 1-19 29 33 33 0 0 1-34-7l-375-375a32 32 0 0 1 0-44l375-375a32 32 0 0 1 22-9 33 33 0 0 1 12 2 31 31 0 0 1 19 29v156h94a31 31 0 0 1 31 32v375a31 31 0 0 1-31 31z m-31-375h-94a31 31 0 0 1-31-31v-113l-300 300 300 300v-112a31 31 0 0 1 31-32h94z m312 344v-375a31 31 0 0 0-62 0v375a31 31 0 0 0 62 0z m-125 0v-375a31 31 0 0 0-62 0v375a31 31 0 0 0 62 0z" horiz-adv-x="1000" />

<glyph glyph-name="arrow-fat-lines-right" unicode="&#xf27e;" d="M929 372l-375 375a33 33 0 0 1-35 7 31 31 0 0 1-19-29v-156h-94a31 31 0 0 1-31-31v-375a31 31 0 0 1 31-32h94v-156a31 31 0 0 1 19-29 33 33 0 0 1 12-2 32 32 0 0 1 23 9l375 375a32 32 0 0 1 0 44z m-366-322v113a31 31 0 0 1-32 31h-93v312h93a31 31 0 0 1 32 32v112l299-300z m-375 488v-375a31 31 0 0 0-63 0v375a31 31 0 0 0 63 0z m125 0v-375a31 31 0 0 0-63 0v375a31 31 0 0 0 63 0z" horiz-adv-x="1000" />

<glyph glyph-name="arrow-fat-lines-up" unicode="&#xf27f;" d="M897 404l-375 375a32 32 0 0 1-44 0l-375-375a33 33 0 0 1-7-35 31 31 0 0 1 29-19h156v-94a31 31 0 0 1 32-31h375a31 31 0 0 1 31 31v94h156a31 31 0 0 1 29 19 33 33 0 0 1-7 35z m-209 9a31 31 0 0 1-32-32v-93h-312v93a31 31 0 0 1-31 32h-113l300 299 300-299z m31-407a31 31 0 0 0-31-31h-375a31 31 0 0 0 0 63h375a31 31 0 0 0 31-32z m0 125a31 31 0 0 0-31-31h-375a31 31 0 0 0 0 63h375a31 31 0 0 0 31-32z" horiz-adv-x="1000" />

<glyph glyph-name="arrow-fat-right" unicode="&#xf280;" d="M929 372l-375 375a33 33 0 0 1-35 7 31 31 0 0 1-19-29v-156h-312a63 63 0 0 1-63-63v-312a63 63 0 0 1 63-63h312v-156a31 31 0 0 1 19-29 33 33 0 0 1 12-2 32 32 0 0 1 23 9l375 375a32 32 0 0 1 0 44z m-366-322v113a31 31 0 0 1-32 31h-343v312h343a31 31 0 0 1 32 32v112l299-300z" horiz-adv-x="1000" />

<glyph glyph-name="arrow-fat-up" unicode="&#xf281;" d="M897 404l-375 375a32 32 0 0 1-44 0l-375-375a33 33 0 0 1-7-35 31 31 0 0 1 29-19h156v-312a63 63 0 0 1 63-63h312a63 63 0 0 1 63 63v312h156a31 31 0 0 1 29 19 33 33 0 0 1-7 35z m-209 9a31 31 0 0 1-32-32v-343h-312v343a31 31 0 0 1-31 32h-113l300 299 300-299z" horiz-adv-x="1000" />

<glyph glyph-name="arrow-left" unicode="&#xf282;" d="M875 350a31 31 0 0 0-31-31h-612l228-228a32 32 0 0 0 0-44 32 32 0 0 0-45 0l-281 281a32 32 0 0 0 0 44l281 282a32 32 0 0 0 45-45l-228-228h612a31 31 0 0 0 31-31z" horiz-adv-x="1000" />

<glyph glyph-name="arrow-line-down" unicode="&#xf283;" d="M197 390a32 32 0 0 0 44 45l228-228v518a31 31 0 0 0 62 0v-518l228 228a32 32 0 0 0 45-45l-282-281a32 32 0 0 0-44 0z m647-352h-688a31 31 0 0 1 0-63h688a31 31 0 0 1 0 63z" horiz-adv-x="1000" />

<glyph glyph-name="arrow-line-down-left" unicode="&#xf284;" d="M710 529a32 32 0 0 0 0-45l-385-384h316a31 31 0 0 0 0-62h-391a31 31 0 0 0-31 31v390a31 31 0 0 0 62 0v-315l384 385a32 32 0 0 0 45 0z m134 196h-688a31 31 0 0 1 0-62h688a31 31 0 0 1 0 62z" horiz-adv-x="1000" />

<glyph glyph-name="arrow-line-down-right" unicode="&#xf285;" d="M781 459v-390a31 31 0 0 0-31-31h-391a31 31 0 0 0 0 62h316l-385 384a32 32 0 0 0 45 45l384-385v315a31 31 0 0 0 62 0z m63 266h-688a31 31 0 0 1 0-62h688a31 31 0 0 1 0 62z" horiz-adv-x="1000" />

<glyph glyph-name="arrow-line-left" unicode="&#xf286;" d="M906 350a31 31 0 0 0-31-31h-518l228-228a32 32 0 0 0 0-44 32 32 0 0 0-45 0l-281 281a32 32 0 0 0 0 44l281 282a32 32 0 0 0 45-45l-228-228h518a31 31 0 0 0 31-31z m-750 375a31 31 0 0 1-31-31v-688a31 31 0 0 1 63 0v688a31 31 0 0 1-32 31z" horiz-adv-x="1000" />

<glyph glyph-name="arrow-line-right" unicode="&#xf287;" d="M741 372a32 32 0 0 0 0-44l-281-281a32 32 0 0 0-45 0 32 32 0 0 0 0 44l228 228h-518a31 31 0 0 0 0 62h518l-228 228a32 32 0 0 0 45 45z m103 353a31 31 0 0 1-31-31v-688a31 31 0 0 1 62 0v688a31 31 0 0 1-31 31z" horiz-adv-x="1000" />

<glyph glyph-name="arrow-line-up" unicode="&#xf288;" d="M804 310a32 32 0 0 0 0-45 32 32 0 0 0-45 0l-228 228v-518a31 31 0 0 0-62 0v518l-228-228a32 32 0 0 0-44 45l281 281a32 32 0 0 0 44 0z m40 415h-688a31 31 0 0 1 0-62h688a31 31 0 0 1 0 62z" horiz-adv-x="1000" />

<glyph glyph-name="arrow-line-up-left" unicode="&#xf289;" d="M219 241v390a31 31 0 0 0 31 32h391a31 31 0 0 0 0-63h-316l385-384a32 32 0 0 0 0-44 32 32 0 0 0-45 0l-384 384v-315a31 31 0 0 0-62 0z m625-203h-688a31 31 0 0 1 0-63h688a31 31 0 0 1 0 63z" horiz-adv-x="1000" />

<glyph glyph-name="arrow-line-up-right" unicode="&#xf28a;" d="M290 172a32 32 0 0 0 0 44l385 384h-316a31 31 0 0 0 0 63h391a31 31 0 0 0 31-32v-390a31 31 0 0 0-62 0v315l-384-384a32 32 0 0 0-45 0z m554-134h-688a31 31 0 0 1 0-63h688a31 31 0 0 1 0 63z" horiz-adv-x="1000" />

<glyph glyph-name="arrow-right" unicode="&#xf28b;" d="M866 328l-281-281a32 32 0 0 0-45 0 32 32 0 0 0 0 44l228 228h-612a31 31 0 0 0 0 62h612l-228 228a32 32 0 0 0 45 45l281-282a32 32 0 0 0 0-44z" horiz-adv-x="1000" />

<glyph glyph-name="arrow-square-down" unicode="&#xf28c;" d="M813 725h-625a63 63 0 0 1-63-62v-625a63 63 0 0 1 63-63h625a63 63 0 0 1 62 63v625a63 63 0 0 1-62 62z m0-687h-625v625h625v-625z m-158 310a31 31 0 0 0 0-44l-133-132a32 32 0 0 0-44 0l-133 132a31 31 0 0 0 45 44l79-79v237a31 31 0 0 0 62 0v-237l80 79a31 31 0 0 0 44 0z" horiz-adv-x="1000" />

<glyph glyph-name="arrow-square-down-left" unicode="&#xf28d;" d="M813 725h-625a63 63 0 0 1-63-62v-625a63 63 0 0 1 63-63h625a63 63 0 0 1 62 63v625a63 63 0 0 1-62 62z m0-687h-625v625h625z m-454 203v187a31 31 0 0 0 63 0v-112l165 166a32 32 0 0 0 45-45l-166-165h112a31 31 0 0 0 0-63h-187a31 31 0 0 0-32 32z" horiz-adv-x="1000" />

<glyph glyph-name="arrow-square-down-right" unicode="&#xf28e;" d="M813 725h-625a63 63 0 0 1-63-62v-625a63 63 0 0 1 63-63h625a63 63 0 0 1 62 63v625a63 63 0 0 1-62 62z m0-687h-625v625h625z m-445 399a32 32 0 0 0 45 45l165-166v112a31 31 0 0 0 63 0v-187a31 31 0 0 0-32-32h-187a31 31 0 0 0 0 63h112z" horiz-adv-x="1000" />

<glyph glyph-name="arrow-square-in" unicode="&#xf28f;" d="M469 288v-235a31 31 0 0 0-63 0v159l-228-228a31 31 0 0 0-22-9 32 32 0 0 0-22 9 31 31 0 0 0 0 44l228 228h-159a31 31 0 0 0 0 63h235a31 31 0 0 0 31-31z m344 437h-532a63 63 0 0 1-62-62v-188a31 31 0 0 1 62 0v188h532v-532h-188a31 31 0 0 1 0-62h188a63 63 0 0 1 62 62v532a63 63 0 0 1-62 62z" horiz-adv-x="1000" />

<glyph glyph-name="arrow-square-left" unicode="&#xf290;" d="M813 725h-625a63 63 0 0 1-63-62v-625a63 63 0 0 1 63-63h625a63 63 0 0 1 62 63v625a63 63 0 0 1-62 62z m0-687h-625v625h625z m-491 290a32 32 0 0 0 0 44l132 133a31 31 0 0 0 44-44l-79-80h237a31 31 0 0 0 0-62h-237l79-79a31 31 0 0 0 0-45 31 31 0 0 0-22-9 30 30 0 0 0-22 9z" horiz-adv-x="1000" />

<glyph glyph-name="arrow-square-out" unicode="&#xf291;" d="M875 459a31 31 0 0 0-62 0v159l-229-228a31 31 0 0 0-21-9 32 32 0 0 0-23 9 31 31 0 0 0 0 44l228 229h-159a31 31 0 0 0 0 62h235a31 31 0 0 0 31-31z m-156-140a31 31 0 0 1-31-31v-250h-500v500h250a31 31 0 0 1 0 62h-250a63 63 0 0 1-63-62v-500a63 63 0 0 1 63-63h500a63 63 0 0 1 62 63v250a31 31 0 0 1-31 31z" horiz-adv-x="1000" />

<glyph glyph-name="arrow-square-right" unicode="&#xf292;" d="M813 725h-625a63 63 0 0 1-63-62v-625a63 63 0 0 1 63-63h625a63 63 0 0 1 62 63v625a63 63 0 0 1-62 62z m0-687h-625v625h625z m-500 312a31 31 0 0 0 31 31h237l-79 80a31 31 0 0 0 44 44l133-133a32 32 0 0 0 0-44l-133-133a30 30 0 0 0-22-9 31 31 0 0 0-22 9 31 31 0 0 0 0 45l79 79h-237a31 31 0 0 0-31 31z" horiz-adv-x="1000" />

<glyph glyph-name="arrow-square-up" unicode="&#xf293;" d="M813 725h-625a63 63 0 0 1-63-62v-625a63 63 0 0 1 63-63h625a63 63 0 0 1 62 63v625a63 63 0 0 1-62 62z m0-687h-625v625h625z m-468 314a31 31 0 0 0 0 44l133 133a32 32 0 0 0 44 0l133-133a31 31 0 0 0 0-44 31 31 0 0 0-23-9 30 30 0 0 0-21 9l-80 79v-237a31 31 0 0 0-62 0v237l-79-79a31 31 0 0 0-45 0z" horiz-adv-x="1000" />

<glyph glyph-name="arrow-square-up-left" unicode="&#xf294;" d="M813 725h-625a63 63 0 0 1-63-62v-625a63 63 0 0 1 63-63h625a63 63 0 0 1 62 63v625a63 63 0 0 1-62 62z m0-687h-625v625h625z m-454 234v187a31 31 0 0 0 32 32h187a31 31 0 0 0 0-63h-112l166-165a32 32 0 0 0 0-45 32 32 0 0 0-45 0l-165 166v-112a31 31 0 0 0-63 0z" horiz-adv-x="1000" />

<glyph glyph-name="arrow-square-up-right" unicode="&#xf295;" d="M813 725h-625a63 63 0 0 1-63-62v-625a63 63 0 0 1 63-63h625a63 63 0 0 1 62 63v625a63 63 0 0 1-62 62z m0-687h-625v625h625z m-445 180a32 32 0 0 0 0 45l166 165h-112a31 31 0 0 0 0 63h187a31 31 0 0 0 32-32v-187a31 31 0 0 0-63 0v112l-165-166a32 32 0 0 0-45 0z" horiz-adv-x="1000" />

<glyph glyph-name="arrow-u-down-left" unicode="&#xf296;" d="M906 413a250 250 0 0 0-250-250h-456l135-134a32 32 0 0 0 0-45 32 32 0 0 0-45 0l-187 188a32 32 0 0 0 0 44l187 188a32 32 0 0 0 45-45l-135-134h456a188 188 0 0 1 0 375h-343a31 31 0 0 0 0 63h343a250 250 0 0 0 250-250z" horiz-adv-x="1000" />

<glyph glyph-name="arrow-u-down-right" unicode="&#xf297;" d="M897 172l-187-188a32 32 0 0 0-45 0 32 32 0 0 0 0 45l135 134h-456a250 250 0 0 0 0 500h344a31 31 0 0 0 0-63h-344a188 188 0 0 1 0-375h456l-135 134a32 32 0 0 0 45 45l187-188a32 32 0 0 0 0-44z" horiz-adv-x="1000" />

<glyph glyph-name="arrow-u-left-down" unicode="&#xf298;" d="M813 506v-343a31 31 0 0 0-63 0v343a188 188 0 0 1-375 0v-456l134 135a32 32 0 0 0 45-45l-188-187a32 32 0 0 0-44 0l-188 187a32 32 0 0 0 45 45l134-135v456a250 250 0 0 0 500 0z" horiz-adv-x="1000" />

<glyph glyph-name="arrow-u-left-up" unicode="&#xf299;" d="M813 538v-344a250 250 0 0 0-500 0v456l-134-135a32 32 0 0 0-45 45l188 187a32 32 0 0 0 44 0l188-187a32 32 0 0 0 0-45 32 32 0 0 0-45 0l-134 135v-456a188 188 0 0 1 375 0v344a31 31 0 0 0 63 0z" horiz-adv-x="1000" />

<glyph glyph-name="arrow-u-right-down" unicode="&#xf29a;" d="M866 140l-187-187a32 32 0 0 0-45 0l-187 187a32 32 0 0 0 44 45l134-135v456a188 188 0 0 1-375 0v-343a31 31 0 0 0-62 0v343a250 250 0 0 0 500 0v-456l134 135a32 32 0 0 0 44-45z" horiz-adv-x="1000" />

<glyph glyph-name="arrow-u-right-up" unicode="&#xf29b;" d="M866 515a32 32 0 0 0-44 0l-134 135v-456a250 250 0 0 0-500 0v344a31 31 0 0 0 62 0v-344a188 188 0 0 1 375 0v456l-134-135a32 32 0 0 0-44 45l187 187a32 32 0 0 0 45 0l187-187a32 32 0 0 0 0-45z" horiz-adv-x="1000" />

<glyph glyph-name="arrow-u-up-left" unicode="&#xf29c;" d="M906 288a250 250 0 0 0-250-250h-343a31 31 0 0 0 0 62h343a188 188 0 0 1 0 375h-456l135-134a32 32 0 0 0 0-44 32 32 0 0 0-45 0l-187 187a32 32 0 0 0 0 45l187 187a32 32 0 0 0 45-44l-135-134h456a250 250 0 0 0 250-250z" horiz-adv-x="1000" />

<glyph glyph-name="arrow-u-up-right" unicode="&#xf29d;" d="M665 341l135 134h-456a188 188 0 0 1 0-375h344a31 31 0 0 0 0-62h-344a250 250 0 0 0 0 500h456l-135 134a32 32 0 0 0 45 44l187-187a32 32 0 0 0 0-45l-187-187a32 32 0 0 0-45 0 32 32 0 0 0 0 44z" horiz-adv-x="1000" />

<glyph glyph-name="arrow-up" unicode="&#xf29e;" d="M804 390a32 32 0 0 0-45 0l-228 228v-612a31 31 0 0 0-62 0v612l-228-228a32 32 0 0 0-44 45l281 281a32 32 0 0 0 44 0l282-281a32 32 0 0 0 0-45z" horiz-adv-x="1000" />

<glyph glyph-name="arrow-up-left" unicode="&#xf29f;" d="M772 78a32 32 0 0 0-44 0l-447 447v-331a31 31 0 0 0-62 0v406a31 31 0 0 0 31 31h406a31 31 0 0 0 0-62h-331l447-447a32 32 0 0 0 0-44z" horiz-adv-x="1000" />

<glyph glyph-name="arrow-up-right" unicode="&#xf2a0;" d="M781 600v-406a31 31 0 0 0-62 0v331l-447-447a32 32 0 0 0-44 0 32 32 0 0 0 0 44l447 447h-331a31 31 0 0 0 0 62h406a31 31 0 0 0 31-31z" horiz-adv-x="1000" />

<glyph glyph-name="arrows-clockwise" unicode="&#xf2a1;" d="M907 648v-187a31 31 0 0 0-31-32h-188a31 31 0 0 0 0 63h112l-79 79a313 313 0 0 1-442 0 31 31 0 0 0-44 0 31 31 0 0 0 0 44 376 376 0 0 0 530 0l80-79v112a31 31 0 1 0 62 0z m-186-519a313 313 0 0 0-442 0l-79 79h112a31 31 0 1 1 0 63h-188a31 31 0 0 1-31-31v-188a31 31 0 0 1 63 0v112l79-79a375 375 0 0 1 530 0 31 31 0 0 1 0 44 31 31 0 0 1-44 0z" horiz-adv-x="1000" />

<glyph glyph-name="arrows-counter-clockwise" unicode="&#xf2a2;" d="M312 429h-188a31 31 0 0 0-31 32v187a31 31 0 1 0 63 0v-112l79 79a376 376 0 0 0 530 0 31 31 0 0 0 0-44 31 31 0 0 0-44 0 313 313 0 0 1-442 0l-79-79h112a31 31 0 0 0 0-63z m564-158h-188a31 31 0 0 1 0-63h112l-79-79a313 313 0 0 0-442 0 31 31 0 0 1-44 0 31 31 0 0 1 0-44 375 375 0 0 1 530 0l80 79v-112a31 31 0 0 1 62 0v188a31 31 0 0 1-31 31z" horiz-adv-x="1000" />

<glyph glyph-name="arrows-down-up" unicode="&#xf2a3;" d="M460 185a32 32 0 0 0 0-45l-125-125a32 32 0 0 0-45 0l-125 125a32 32 0 0 0 45 45l71-72v550a31 31 0 0 0 63 0v-550l71 72a32 32 0 0 0 45 0z m375 375l-125 125a32 32 0 0 1-45 0l-125-125a32 32 0 0 1 45-45l71 72v-549a31 31 0 0 1 63 0v549l71-72a32 32 0 0 1 45 0 32 32 0 0 1 0 45z" horiz-adv-x="1000" />

<glyph glyph-name="arrows-horizontal" unicode="&#xf2a4;" d="M929 328l-125-125a32 32 0 0 0-45 0 32 32 0 0 0 0 44l72 72h-662l72-72a32 32 0 0 0 0-44 32 32 0 0 0-44 0l-125 125a32 32 0 0 0 0 44l125 125a32 32 0 0 0 44-44l-72-72h662l-72 72a32 32 0 0 0 45 44l125-125a32 32 0 0 0 0-44z" horiz-adv-x="1000" />

<glyph glyph-name="arrows-in" unicode="&#xf2a5;" d="M563 444v156a31 31 0 0 0 62 0v-81l165 166a32 32 0 0 0 45-45l-166-165h81a31 31 0 0 0 0-62h-156a31 31 0 0 0-31 31z m-157-156h-156a31 31 0 0 1 0-63h81l-166-165a32 32 0 0 1 0-45 32 32 0 0 1 45 0l165 166v-81a31 31 0 0 1 63 0v156a31 31 0 0 1-32 32z m263-63h81a31 31 0 0 1 0 63h-156a31 31 0 0 1-31-32v-156a31 31 0 0 1 62 0v81l165-166a32 32 0 0 1 45 0 32 32 0 0 1 0 45z m-263 406a31 31 0 0 1-31-31v-81l-165 166a32 32 0 0 1-45-45l166-165h-81a31 31 0 0 1 0-62h156a31 31 0 0 1 32 31v156a31 31 0 0 1-32 31z" horiz-adv-x="1000" />

<glyph glyph-name="arrows-in-cardinal" unicode="&#xf2a6;" d="M632 137a31 31 0 0 0 0-44 30 30 0 0 0-21-10 31 31 0 0 0-23 10l-57 57v-206a31 31 0 0 0-62 0v206l-57-57a31 31 0 0 0-44 44l110 110a32 32 0 0 0 44 0z m-154 316a32 32 0 0 1 44 0l110 110a31 31 0 1 1-44 44l-57-57v206a31 31 0 0 1-62 0v-206l-57 57a31 31 0 1 1-44-44z m-81-81l-110 110a31 31 0 1 1-44-44l57-57h-206a31 31 0 0 1 0-62h206l-57-57a31 31 0 0 1 0-44 30 30 0 0 1 22-10 31 31 0 0 1 22 10l110 110a32 32 0 0 1 0 44z m509 9h-206l57 57a31 31 0 0 1-44 44l-110-110a32 32 0 0 1 0-44l110-110a31 31 0 0 1 23-10 30 30 0 0 1 21 10 31 31 0 0 1 0 44l-57 57h206a31 31 0 0 1 0 62z" horiz-adv-x="1000" />

<glyph glyph-name="arrows-in-line-horizontal" unicode="&#xf2a7;" d="M531 694v-688a31 31 0 0 0-62 0v688a31 31 0 0 0 62 0z m-259-197a32 32 0 0 1-44-44l72-72h-237a31 31 0 0 1 0-62h237l-72-72a32 32 0 0 1 0-44 32 32 0 0 1 44 0l125 125a32 32 0 0 1 0 44z m666-116h-238l72 72a32 32 0 0 1-44 44l-125-125a32 32 0 0 1 0-44l125-125a32 32 0 0 1 44 0 32 32 0 0 1 0 44l-72 72h238a31 31 0 0 1 0 62z" horiz-adv-x="1000" />

<glyph glyph-name="arrows-in-line-vertical" unicode="&#xf2a8;" d="M875 350a31 31 0 0 0-31-31h-688a31 31 0 0 0 0 62h688a31 31 0 0 0 31-31z m-397 103a32 32 0 0 1 44 0l125 125a32 32 0 0 1-44 44l-72-72v238a31 31 0 0 1-62 0v-238l-72 72a32 32 0 0 1-44-44z m44-206a32 32 0 0 1-44 0l-125-125a32 32 0 0 1 44-44l72 72v-238a31 31 0 0 1 62 0v238l72-72a32 32 0 0 1 44 0 32 32 0 0 1 0 44z" horiz-adv-x="1000" />

<glyph glyph-name="arrows-in-simple" unicode="&#xf2a9;" d="M835 640l-166-165h112a31 31 0 0 0 0-62h-187a31 31 0 0 0-31 31v187a31 31 0 0 0 62 0v-112l165 166a32 32 0 0 0 45-45z m-429-352h-187a31 31 0 0 1 0-63h112l-166-165a32 32 0 0 1 0-45 32 32 0 0 1 45 0l165 166v-112a31 31 0 0 1 63 0v187a31 31 0 0 1-32 32z" horiz-adv-x="1000" />

<glyph glyph-name="arrows-left-right" unicode="&#xf2aa;" d="M835 140l-125-125a32 32 0 0 0-45 0 32 32 0 0 0 0 45l72 71h-549a31 31 0 0 0 0 63h549l-72 71a32 32 0 0 0 45 45l125-125a32 32 0 0 0 0-45z m-545 250a32 32 0 0 1 45 0 32 32 0 0 1 0 45l-72 71h550a31 31 0 0 1 0 63h-550l72 71a32 32 0 0 1-45 45l-125-125a32 32 0 0 1 0-45z" horiz-adv-x="1000" />

<glyph glyph-name="arrows-out" unicode="&#xf2ab;" d="M844 663v-157a31 31 0 0 0-63 0v81l-165-165a32 32 0 0 0-44 0 32 32 0 0 0 0 44l165 165h-81a31 31 0 0 0 0 63h157a31 31 0 0 0 31-31z m-460-384l-165-166v81a31 31 0 0 1-63 0v-156a31 31 0 0 1 32-32h156a31 31 0 0 1 0 63h-81l166 165a32 32 0 0 1-45 45z m429-54a31 31 0 0 1-32-31v-81l-165 166a32 32 0 0 1-44-45l165-165h-81a31 31 0 0 1 0-63h157a31 31 0 0 1 31 32v156a31 31 0 0 1-31 31z m-550 406h81a31 31 0 0 1 0 63h-156a31 31 0 0 1-32-31v-157a31 31 0 0 1 63 0v81l165-165a32 32 0 0 1 45 0 32 32 0 0 1 0 44z" horiz-adv-x="1000" />

<glyph glyph-name="arrows-out-cardinal" unicode="&#xf2ac;" d="M632 76a31 31 0 0 0 0-44l-110-111a32 32 0 0 0-44 0l-110 111a31 31 0 0 0 44 44l57-57v206a31 31 0 0 0 62 0v-206l57 57a31 31 0 0 0 44 0z m-220 548l57 57v-206a31 31 0 0 1 62 0v206l57-57a31 31 0 0 1 23-9 30 30 0 0 1 21 9 31 31 0 0 1 0 44l-110 111a32 32 0 0 1-44 0l-110-111a31 31 0 0 1 44-44z m-243-305h206a31 31 0 0 1 0 62h-206l57 57a31 31 0 0 1-44 44l-110-110a32 32 0 0 1 0-44l110-110a31 31 0 0 1 22-10 30 30 0 0 1 22 10 31 31 0 0 1 0 44z m760 53l-111 110a31 31 0 0 1-44-44l57-57h-206a31 31 0 0 1 0-62h206l-57-57a31 31 0 0 1 0-44 30 30 0 0 1 22-10 31 31 0 0 1 22 10l111 110a32 32 0 0 1 0 44z" horiz-adv-x="1000" />

<glyph glyph-name="arrows-out-line-horizontal" unicode="&#xf2ad;" d="M531 694v-688a31 31 0 0 0-62 0v688a31 31 0 0 0 62 0z m-156-313h-237l72 72a32 32 0 0 1-45 44l-125-125a32 32 0 0 1 0-44l125-125a32 32 0 0 1 45 0 32 32 0 0 1 0 44l-72 72h237a31 31 0 0 1 0 62z m585-9l-125 125a32 32 0 0 1-45-44l72-72h-237a31 31 0 0 1 0-62h237l-72-72a32 32 0 0 1 0-44 32 32 0 0 1 45 0l125 125a32 32 0 0 1 0 44z" horiz-adv-x="1000" />

<glyph glyph-name="arrows-out-line-vertical" unicode="&#xf2ae;" d="M875 350a31 31 0 0 0-31-31h-688a31 31 0 0 0 0 62h688a31 31 0 0 0 31-31z m-478 290l72 72v-237a31 31 0 0 1 62 0v237l72-72a32 32 0 0 1 44 0 32 32 0 0 1 0 45l-125 125a32 32 0 0 1-44 0l-125-125a32 32 0 0 1 44-45z m206-580l-72-72v237a31 31 0 0 1-62 0v-237l-72 72a32 32 0 0 1-44-45l125-125a32 32 0 0 1 44 0l125 125a32 32 0 0 1-44 45z" horiz-adv-x="1000" />

<glyph glyph-name="arrows-out-simple" unicode="&#xf2af;" d="M844 663v-188a31 31 0 0 0-63 0v112l-165-165a32 32 0 0 0-44 0 32 32 0 0 0 0 44l165 165h-112a31 31 0 0 0 0 63h188a31 31 0 0 0 31-31z m-460-384l-165-166v112a31 31 0 0 1-63 0v-187a31 31 0 0 1 32-32h187a31 31 0 0 1 0 63h-112l166 165a32 32 0 0 1-45 45z" horiz-adv-x="1000" />

<glyph glyph-name="arrows-vertical" unicode="&#xf2b0;" d="M647 91a32 32 0 0 0 0-44l-125-126a32 32 0 0 0-44 0l-125 126a32 32 0 0 0 44 44l72-72v662l-72-72a32 32 0 0 0-44 45l125 125a32 32 0 0 0 44 0l125-125a32 32 0 0 0 0-45 32 32 0 0 0-44 0l-72 72v-662l72 72a32 32 0 0 0 44 0z" horiz-adv-x="1000" />

<glyph glyph-name="article" unicode="&#xf2b1;" d="M844 694h-688a63 63 0 0 1-62-63v-562a63 63 0 0 1 62-63h688a63 63 0 0 1 62 63v562a63 63 0 0 1-62 63z m0-625h-688v562h688v-562z m-110 406a31 31 0 0 0-31-31h-406a31 31 0 0 0 0 62h406a31 31 0 0 0 31-31z m0-125a31 31 0 0 0-31-31h-406a31 31 0 0 0 0 62h406a31 31 0 0 0 31-31z m0-125a31 31 0 0 0-31-31h-406a31 31 0 0 0 0 62h406a31 31 0 0 0 31-31z" horiz-adv-x="1000" />

<glyph glyph-name="article-medium" unicode="&#xf2b2;" d="M219 319a31 31 0 0 0-31-31h-94a31 31 0 0 0 0 62h31v250h-31a31 31 0 0 0 0 63h62a31 31 0 0 0 27-15l130-208 129 208a31 31 0 0 0 27 15h62a31 31 0 0 0 0-63h-31v-250h31a31 31 0 0 0 0-62h-93a31 31 0 0 0 0 62v172l-99-157a31 31 0 0 0-53 0l-98 157v-172a31 31 0 0 0 31-31z m437 94h282a31 31 0 0 1 0 62h-282a31 31 0 0 1 0-62z m282-63h-282a31 31 0 0 1 0-62h282a31 31 0 0 1 0 62z m0-125h-657a31 31 0 0 1 0-62h657a31 31 0 0 1 0 62z m0-125h-657a31 31 0 0 1 0-62h657a31 31 0 0 1 0 62z" horiz-adv-x="1000" />

<glyph glyph-name="article-ny-times" unicode="&#xf2b3;" d="M594 444a31 31 0 0 0 31 31h313a31 31 0 1 0 0-62h-313a31 31 0 0 0-31 31z m344-94h-313a31 31 0 0 1 0-62h313a31 31 0 1 1 0 62z m0-125h-313a31 31 0 0 1 0-62h313a31 31 0 1 1 0 62z m0-125h-656a31 31 0 0 1 0-62h656a31 31 0 1 1 0 62z m-625 63a218 218 0 0 0-194 320 109 109 0 0 0 69 195 30 30 0 0 0 16-5l241-150a47 47 0 0 1-7 93 31 31 0 0 0 0 62 109 109 0 0 0 0-219 30 30 0 0 0-17 5l-117 73a156 156 0 0 1-23-309v175a31 31 0 0 0 32 31 31 31 0 0 0 31-31v-175a156 156 0 0 1 120 115 31 31 0 0 0 38 23 31 31 0 0 0 23-37 218 218 0 0 0-212-166z m-157 371a220 220 0 0 0 74 50l-50 31a47 47 0 0 1-39-46 46 46 0 0 1 15-35z" horiz-adv-x="1000" />

<glyph glyph-name="asterisk" unicode="&#xf2b4;" d="M825 163a30 30 0 0 0-27-16 29 29 0 0 0-16 4l-251 145v-290a31 31 0 0 0-62 0v290l-251-145a29 29 0 0 0-16-4 30 30 0 0 0-27 16 31 31 0 0 0 12 42l251 145-251 145a31 31 0 0 0 31 54l251-145v290a31 31 0 0 0 62 0v-290l251 145a31 31 0 1 0 31-54l-250-145 250-145a31 31 0 0 0 12-42z" horiz-adv-x="1000" />

<glyph glyph-name="asterisk-simple" unicode="&#xf2b5;" d="M837 427l-287-93 177-244a31 31 0 1 0-50-36l-177 243-177-243a31 31 0 1 0-50 36l177 244-287 93a31 31 0 0 0 20 59l286-93v301a31 31 0 0 0 62 0v-301l286 93a31 31 0 0 0 20-59z" horiz-adv-x="1000" />

<glyph glyph-name="at" unicode="&#xf2b6;" d="M500 756a406 406 0 1 1 225-745 31 31 0 0 1-35 53 344 344 0 1 0 154 286c0-103-43-125-78-125s-78 22-78 125v156a31 31 0 0 1-63 0v-16a185 185 0 0 1-125 48 188 188 0 1 1 148-303c24-46 64-72 118-72 88 0 140 69 140 187a407 407 0 0 1-406 406z m0-531a125 125 0 1 0 125 125 125 125 0 0 0-125-125z" horiz-adv-x="1000" />

<glyph glyph-name="atom" unicode="&#xf2b7;" d="M766 350a763 763 0 0 1 75 128c43 96 44 172 2 215-69 68-208 19-343-77-135 96-274 145-343 77-42-43-41-119 2-215a763 763 0 0 1 75-128 763 763 0 0 1-75-128c-43-96-44-172-2-215 22-22 52-31 86-31 72 0 166 43 257 108 91-65 185-108 257-108 34 0 64 9 86 31 42 43 41 119-2 215a763 763 0 0 1-75 128z m32 298c22-22 17-76-14-144a663 663 0 0 0-58-102c-25 31-53 62-82 92s-60 56-92 82c120 82 217 102 246 72z m-110-298a1083 1083 0 0 0-88-100 1227 1227 0 0 0-100-88 1227 1227 0 0 0-100 88 1083 1083 0 0 0-88 100 1083 1083 0 0 0 88 100 1227 1227 0 0 0 100 88 1227 1227 0 0 0 100-88 1083 1083 0 0 0 88-100z m-472 154c-31 68-36 122-14 144 29 30 126 10 246-72-32-26-62-53-92-82s-57-61-82-92a663 663 0 0 0-58 102z m-14-452c-22 22-17 76 14 145a663 663 0 0 0 58 101c25-31 53-62 82-92s60-56 92-82c-120-82-217-102-246-72z m350 72c32 26 63 53 92 82s57 61 82 92a663 663 0 0 0 58-101c31-69 36-123 14-145-29-30-126-10-246 72z m-5 226a47 47 0 1 0-47 47 47 47 0 0 0 47-47z" horiz-adv-x="1000" />

<glyph glyph-name="baby" unicode="&#xf2b8;" d="M500 756h0a407 407 0 1 1 0 0z m0-750a344 344 0 0 0-60 682c-33-63-34-116-34-119a94 94 0 0 1 188 0 31 31 0 0 1-63 0 31 31 0 0 0-62 0c0 0 1 61 46 124a344 344 0 0 0-15-687z m-141 297a47 47 0 1 0 47 47 47 47 0 0 0-47-47z m329 47a47 47 0 1 0-47 47 47 47 0 0 0 47-47z m-58-139a32 32 0 0 0-9-43 220 220 0 0 0-242 0 32 32 0 0 0-9 43 31 31 0 0 0 44 9 156 156 0 0 1 172 0 31 31 0 0 0 44-9z" horiz-adv-x="1000" />

<glyph glyph-name="backpack" unicode="&#xf2b9;" d="M656 691v34a94 94 0 0 1-93 94h-125a94 94 0 0 1-94-94v-34a219 219 0 0 1-188-216v-469a63 63 0 0 1 63-62h562a63 63 0 0 1 63 62v469a219 219 0 0 1-188 216z m-218 65h125a31 31 0 0 0 31-31v-31h-188v31a31 31 0 0 0 32 31z m218-531h-312v31a31 31 0 0 0 31 32h250a31 31 0 0 0 31-32z m-312-62h187v-32a31 31 0 0 1 63 0v32h62v-157h-312z m437-157h-62v250a94 94 0 0 1-94 94h-250a94 94 0 0 1-94-94v-250h-62v469a156 156 0 0 0 156 156h250a156 156 0 0 0 156-156v-469z m-187 500a31 31 0 0 0-31-31h-125a31 31 0 0 0 0 63h125a31 31 0 0 0 31-32z" horiz-adv-x="1000" />

<glyph glyph-name="backspace" unicode="&#xf2ba;" d="M844 694h-576a63 63 0 0 1-54-31l-178-297a31 31 0 0 1 0-32l178-297a63 63 0 0 1 54-31h576a63 63 0 0 1 62 63v562a63 63 0 0 1-62 63z m-603-641l27 16z m603 16h-576l-169 281 169 281h576z m-429 210l72 71-72 72a32 32 0 0 0 45 44l71-72 72 72a32 32 0 0 0 44-44l-72-72 72-71a32 32 0 0 0 0-45 32 32 0 0 0-22-9 33 33 0 0 0-22 9l-72 72-71-72a32 32 0 0 0-22-9 33 33 0 0 0-23 9 32 32 0 0 0 0 45z" horiz-adv-x="1000" />

<glyph glyph-name="bag" unicode="&#xf2bb;" d="M844 600h-159a188 188 0 0 1-370 0h-159a63 63 0 0 1-62-62v-500a63 63 0 0 1 62-63h688a63 63 0 0 1 62 63v500a63 63 0 0 1-62 62z m-344 94a125 125 0 0 0 121-94h-242a125 125 0 0 0 121 94z m344-656h-688v500h157v-94a31 31 0 0 1 62 0v94h250v-94a31 31 0 0 1 63 0v94h156z" horiz-adv-x="1000" />

<glyph glyph-name="bag-simple" unicode="&#xf2bc;" d="M844 600h-159a188 188 0 0 1-370 0h-159a63 63 0 0 1-62-62v-500a63 63 0 0 1 62-63h688a63 63 0 0 1 62 63v500a63 63 0 0 1-62 62z m-344 94a125 125 0 0 0 121-94h-242a125 125 0 0 0 121 94z m344-656h-688v500h688z" horiz-adv-x="1000" />

<glyph glyph-name="balloon" unicode="&#xf2bd;" d="M500 788a344 344 0 0 1-344-344c0-92 37-193 98-272 47-59 103-100 162-120l-39-97a31 31 0 0 1 4-29 31 31 0 0 1 25-14h188a31 31 0 0 1 26 14 31 31 0 0 1 3 29l-39 97c59 20 115 61 162 120 61 79 98 180 98 272a344 344 0 0 1-344 344z m48-813h-96l26 64a212 212 0 0 1 44 0z m149 236c-57-71-126-111-197-111s-140 40-196 111-85 155-85 233a281 281 0 0 0 562 0c0-78-31-165-84-233z m-7 233h-5a32 32 0 0 0-31 26 155 155 0 0 1-128 128 32 32 0 0 0-26 36 31 31 0 0 0 36 26 218 218 0 0 0 180-179 31 31 0 0 0-26-37z" horiz-adv-x="1000" />

<glyph glyph-name="bandaids" unicode="&#xf2be;" d="M453 350a47 47 0 1 0 47-47 47 47 0 0 0-47 47z m376-108a156 156 0 0 0-221-221l-108 108-108-108a156 156 0 0 0-221 221l108 108-108 108a156 156 0 0 0 221 221l108-108 108 108a156 156 0 0 0 221-221l-108-108z m-285 285l133-133 108 108a94 94 0 0 1-133 133z m-44-45l-132-132 132-132 132 132z m-177-88l133 133-108 108a94 94 0 0 1-133-133z m133-221l-133 133-108-108a94 94 0 0 1 133-133z m357-42a95 95 0 0 1-28 67l-108 108-133-133 108-108a94 94 0 0 1 161 66z" horiz-adv-x="1000" />

<glyph glyph-name="bank" unicode="&#xf2bf;" d="M94 444h94v-250h-63a31 31 0 0 1 0-63h750a31 31 0 0 1 0 63h-62v250h93a31 31 0 0 1 17 58l-407 250a31 31 0 0 1-32 0l-407-250a31 31 0 0 1 17-58z m156 0h125v-250h-125z m313 0v-250h-125v250z m187-250h-125v250h125z m-250 494l296-182h-592z m469-650a31 31 0 0 0-31-32h-875a31 31 0 0 0 0 63h875a31 31 0 0 0 31-31z" horiz-adv-x="1000" />

<glyph glyph-name="barbell" unicode="&#xf2c0;" d="M969 381h-31v125a63 63 0 0 1-63 63h-62v31a63 63 0 0 1-63 63h-94a63 63 0 0 1-62-63v-219h-188v219a63 63 0 0 1-62 63h-94a63 63 0 0 1-62-63v-31h-63a63 63 0 0 1-62-63v-125h-32a31 31 0 0 1 0-62h32v-125a63 63 0 0 1 62-63h63v-31a63 63 0 0 1 62-62h94a63 63 0 0 1 62 62v219h188v-219a63 63 0 0 1 62-62h94a63 63 0 0 1 63 62v31h62a63 63 0 0 1 63 63v125h31a31 31 0 0 1 0 62z m-844-187v312h63v-312z m219-94h-94v500h94v-500z m406 0h-94v500h94v-500z m125 94h-62v312h62z" horiz-adv-x="1000" />

<glyph glyph-name="barcode" unicode="&#xf2c1;" d="M906 663v-157a31 31 0 0 0-62 0v125h-125a31 31 0 0 0 0 63h156a31 31 0 0 0 31-31z m-625-594h-125v125a31 31 0 0 1-62 0v-156a31 31 0 0 1 31-32h156a31 31 0 0 1 0 63z m594 156a31 31 0 0 1-31-31v-125h-125a31 31 0 0 1 0-63h156a31 31 0 0 1 31 32v156a31 31 0 0 1-31 31z m-750 250a31 31 0 0 1 31 31v125h125a31 31 0 0 1 0 63h-156a31 31 0 0 1-31-31v-157a31 31 0 0 1 31-31z m188 63a31 31 0 0 1-32-32v-312a31 31 0 0 1 63 0v312a31 31 0 0 1-31 32z m406-344v312a31 31 0 0 1-63 0v-312a31 31 0 0 1 63 0z m-156 344a31 31 0 0 1-32-32v-312a31 31 0 0 1 63 0v312a31 31 0 0 1-31 32z m-125 0a31 31 0 0 1-32-32v-312a31 31 0 0 1 63 0v312a31 31 0 0 1-31 32z" horiz-adv-x="1000" />

<glyph glyph-name="barricade" unicode="&#xf2c2;" d="M875 600h-750a63 63 0 0 1-62-62v-282a63 63 0 0 1 62-62h94v-125a31 31 0 0 1 62 0v125h438v-125a31 31 0 0 1 62 0v125h94a63 63 0 0 1 63 62v282a63 63 0 0 1-63 62z m0-253l-190 191h190z m-560 191l282-282h-193l-279 279v3z m-190-91l190-191h-190z m750-191h-190l-281 282h193l278-279v-3z" horiz-adv-x="1000" />

<glyph glyph-name="baseball" unicode="&#xf2c3;" d="M500 756a406 406 0 1 1 406-406 407 407 0 0 1-406 406z m-221-669c5 7 11 14 16 22a31 31 0 0 1-6 43 32 32 0 0 1-44-6c-3-5-7-10-11-14a343 343 0 0 0 0 436c4-4 8-9 11-14a31 31 0 0 1 25-12 33 33 0 0 1 19 6 31 31 0 0 1 6 43c-5 8-11 15-16 22a344 344 0 0 0 443 0c-6-7-12-14-17-22a31 31 0 0 1 6-43 33 33 0 0 1 19-6 31 31 0 0 1 25 12c3 5 7 10 11 14a343 343 0 0 0 0-436c-4 4-8 9-11 14a32 32 0 0 1-44 6 31 31 0 0 1-6-43c5-8 11-15 17-22a344 344 0 0 0-443 0z m351 326a428 428 0 0 0 16 66 31 31 0 0 0 60-20 315 315 0 0 1-14-55 32 32 0 0 0-31-27h-5a31 31 0 0 0-26 36z m56-212a29 29 0 0 0-10-1 31 31 0 0 0-30 21 413 413 0 0 0-16 66 31 31 0 0 0 62 10 315 315 0 0 1 14-56 31 31 0 0 0-20-40z m-391 258a31 31 0 0 0 59 20 428 428 0 0 0 16-66 31 31 0 0 0-26-35h-5a32 32 0 0 0-31 26 315 315 0 0 1-13 55z m75-172a413 413 0 0 0-16-66 31 31 0 0 0-30-21 29 29 0 0 0-9 1 31 31 0 0 0-20 40 315 315 0 0 1 13 56 31 31 0 0 0 62-10z" horiz-adv-x="1000" />

<glyph glyph-name="basketball" unicode="&#xf2c4;" d="M790 66a406 406 0 0 1 0 568 9 9 0 0 1-2 3l-3 2a406 406 0 0 1-570 0l-2-2a9 9 0 0 1-3-3 406 406 0 0 1 0-568 9 9 0 0 1 3-3l2-2a406 406 0 0 1 570 0l3 2z m-632 253h153a339 339 0 0 0-77-187 340 340 0 0 0-76 187z m76 249a339 339 0 0 0 77-187h-153a340 340 0 0 0 76 187z m608-187h-153a339 339 0 0 0 77 187 340 340 0 0 0 76-187z m-216 0h-95v311a341 341 0 0 0 191-79 404 404 0 0 1-96-232z m-157 0h-95a404 404 0 0 1-95 232 341 341 0 0 0 190 79z m-95-62h95v-311a341 341 0 0 0-190 79 404 404 0 0 1 95 232z m157 0h95a404 404 0 0 1 96-232 341 341 0 0 0-191-79z m158 0h153a340 340 0 0 0-76-187 339 339 0 0 0-77 187z" horiz-adv-x="1000" />

<glyph glyph-name="bathtub" unicode="&#xf2c5;" d="M906 475h-93a31 31 0 0 1-32 31h-250a31 31 0 0 1-31-31h-250v172a47 47 0 0 0 94 0 31 31 0 0 1 62 0 109 109 0 0 1-218 0v-172h-94a63 63 0 0 1-63-62v-125a219 219 0 0 1 219-219v-63a31 31 0 0 1 63 0v63h375v-63a31 31 0 0 1 62 0v63a219 219 0 0 1 219 219v125a63 63 0 0 1-63 62z m-156-31v-125h-187v125z m156-156a156 156 0 0 0-156-157h-500a156 156 0 0 0-156 157v125h406v-125a31 31 0 0 1 31-32h250a31 31 0 0 1 32 32v125h93z" horiz-adv-x="1000" />

<glyph glyph-name="battery-charging" unicode="&#xf2c6;" d="M1000 475v-250a31 31 0 0 0-62 0v250a31 31 0 0 0 62 0z m-125 94v-438a94 94 0 0 0-94-93h-593a94 94 0 0 0-94 93v438a94 94 0 0 0 94 94h593a94 94 0 0 0 94-94z m-62 0a31 31 0 0 1-32 31h-593a31 31 0 0 1-32-31v-438a31 31 0 0 1 32-31h593a31 31 0 0 1 32 31z m-266-188h-79l45 114a31 31 0 1 1-57 23l-63-156a31 31 0 0 1 3-30 31 31 0 0 1 26-13h79l-45-113a31 31 0 0 1 17-41 31 31 0 0 1 11-2 31 31 0 0 1 29 19l63 156a31 31 0 0 1-3 30 31 31 0 0 1-26 13z" horiz-adv-x="1000" />

<glyph glyph-name="battery-charging-vertical" unicode="&#xf2c7;" d="M344 819a31 31 0 0 0 31 31h250a31 31 0 0 0 0-62h-250a31 31 0 0 0-31 31z m469-188v-593a94 94 0 0 0-94-94h-438a94 94 0 0 0-93 94v593a94 94 0 0 0 93 94h438a94 94 0 0 0 94-94z m-63 0a31 31 0 0 1-31 32h-438a31 31 0 0 1-31-32v-593a31 31 0 0 1 31-32h438a31 31 0 0 1 31 32z m-187-265h-79l45 113a31 31 0 1 1-58 23l-62-156a31 31 0 0 1 3-29 31 31 0 0 1 26-14h78l-45-113a31 31 0 0 1 17-41 31 31 0 0 1 12-2 31 31 0 0 1 29 19l62 157a31 31 0 0 1-3 29 31 31 0 0 1-25 14z" horiz-adv-x="1000" />

<glyph glyph-name="battery-empty" unicode="&#xf2c8;" d="M1000 475v-250a31 31 0 0 0-62 0v250a31 31 0 0 0 62 0z m-125 94v-438a94 94 0 0 0-94-93h-593a94 94 0 0 0-94 93v438a94 94 0 0 0 94 94h593a94 94 0 0 0 94-94z m-62 0a31 31 0 0 1-32 31h-593a31 31 0 0 1-32-31v-438a31 31 0 0 1 32-31h593a31 31 0 0 1 32 31z" horiz-adv-x="1000" />

<glyph glyph-name="battery-full" unicode="&#xf2c9;" d="M1000 475v-250a31 31 0 0 0-62 0v250a31 31 0 0 0 62 0z m-125 94v-438a94 94 0 0 0-94-93h-593a94 94 0 0 0-94 93v438a94 94 0 0 0 94 94h593a94 94 0 0 0 94-94z m-62 0a31 31 0 0 1-32 31h-593a31 31 0 0 1-32-31v-438a31 31 0 0 1 32-31h593a31 31 0 0 1 32 31z m-257-31a31 31 0 0 1-31-32v-312a31 31 0 0 1 63 0v312a31 31 0 0 1-32 32z m-143 0a31 31 0 0 1-32-32v-312a31 31 0 0 1 63 0v312a31 31 0 0 1-31 32z m-144 0a31 31 0 0 1-31-32v-312a31 31 0 0 1 62 0v312a31 31 0 0 1-31 32z m431 0a31 31 0 0 1-31-32v-312a31 31 0 0 1 62 0v312a31 31 0 0 1-31 32z" horiz-adv-x="1000" />

<glyph glyph-name="battery-high" unicode="&#xf2ca;" d="M1000 475v-250a31 31 0 0 0-62 0v250a31 31 0 0 0 62 0z m-125 94v-438a94 94 0 0 0-94-93h-593a94 94 0 0 0-94 93v438a94 94 0 0 0 94 94h593a94 94 0 0 0 94-94z m-62 0a31 31 0 0 1-32 31h-593a31 31 0 0 1-32-31v-438a31 31 0 0 1 32-31h593a31 31 0 0 1 32 31z m-257-31a31 31 0 0 1-31-32v-312a31 31 0 0 1 63 0v312a31 31 0 0 1-32 32z m-143 0a31 31 0 0 1-32-32v-312a31 31 0 0 1 63 0v312a31 31 0 0 1-31 32z m-144 0a31 31 0 0 1-31-32v-312a31 31 0 0 1 62 0v312a31 31 0 0 1-31 32z" horiz-adv-x="1000" />

<glyph glyph-name="battery-low" unicode="&#xf2cb;" d="M1000 475v-250a31 31 0 0 0-62 0v250a31 31 0 0 0 62 0z m-125 94v-438a94 94 0 0 0-94-93h-593a94 94 0 0 0-94 93v438a94 94 0 0 0 94 94h593a94 94 0 0 0 94-94z m-62 0a31 31 0 0 1-32 31h-593a31 31 0 0 1-32-31v-438a31 31 0 0 1 32-31h593a31 31 0 0 1 32 31z m-544-31a31 31 0 0 1-31-32v-312a31 31 0 0 1 62 0v312a31 31 0 0 1-31 32z" horiz-adv-x="1000" />

<glyph glyph-name="battery-medium" unicode="&#xf2cc;" d="M1000 475v-250a31 31 0 0 0-62 0v250a31 31 0 0 0 62 0z m-125 94v-438a94 94 0 0 0-94-93h-593a94 94 0 0 0-94 93v438a94 94 0 0 0 94 94h593a94 94 0 0 0 94-94z m-62 0a31 31 0 0 1-32 31h-593a31 31 0 0 1-32-31v-438a31 31 0 0 1 32-31h593a31 31 0 0 1 32 31z m-400-31a31 31 0 0 1-32-32v-312a31 31 0 0 1 63 0v312a31 31 0 0 1-31 32z m-144 0a31 31 0 0 1-31-32v-312a31 31 0 0 1 62 0v312a31 31 0 0 1-31 32z" horiz-adv-x="1000" />

<glyph glyph-name="battery-plus" unicode="&#xf2cd;" d="M1000 475v-250a31 31 0 0 0-62 0v250a31 31 0 0 0 62 0z m-125 94v-438a94 94 0 0 0-94-93h-593a94 94 0 0 0-94 93v438a94 94 0 0 0 94 94h593a94 94 0 0 0 94-94z m-62 0a31 31 0 0 1-32 31h-593a31 31 0 0 1-32-31v-438a31 31 0 0 1 32-31h593a31 31 0 0 1 32 31z m-235-188h-62v63a31 31 0 0 1-63 0v-63h-62a31 31 0 0 1 0-62h62v-63a31 31 0 0 1 63 0v63h62a31 31 0 0 1 0 62z" horiz-adv-x="1000" />

<glyph glyph-name="battery-warning" unicode="&#xf2ce;" d="M453 350v156a31 31 0 0 0 63 0v-156a31 31 0 0 0-63 0z m516 156a31 31 0 0 1-31-31v-250a31 31 0 0 1 62 0v250a31 31 0 0 1-31 31z m-94 63v-438a94 94 0 0 0-94-93h-593a94 94 0 0 0-94 93v438a94 94 0 0 0 94 94h593a94 94 0 0 0 94-94z m-62 0a31 31 0 0 1-32 31h-593a31 31 0 0 1-32-31v-438a31 31 0 0 1 32-31h593a31 31 0 0 1 32 31z m-329-313a47 47 0 1 1 47-47 47 47 0 0 1-47 47z" horiz-adv-x="1000" />

<glyph glyph-name="battery-warning-vertical" unicode="&#xf2cf;" d="M469 334v157a31 31 0 0 0 62 0v-157a31 31 0 0 0-62 0z m-94 454h250a31 31 0 0 1 0 62h-250a31 31 0 0 1 0-62z m438-157v-593a94 94 0 0 0-94-94h-438a94 94 0 0 0-93 94v593a94 94 0 0 0 93 94h438a94 94 0 0 0 94-94z m-63 0a31 31 0 0 1-31 32h-438a31 31 0 0 1-31-32v-593a31 31 0 0 1 31-32h438a31 31 0 0 1 31 32z m-250-390a47 47 0 1 1 47-47 47 47 0 0 1-47 47z" horiz-adv-x="1000" />

<glyph glyph-name="bed" unicode="&#xf2d0;" d="M813 569h-719v94a31 31 0 0 1-63 0v-625a31 31 0 0 1 63 0v125h812v-125a31 31 0 0 1 63 0v375a156 156 0 0 1-156 156z m-719-63h281v-281h-281z m344-281v281h375a94 94 0 0 0 93-93v-188z" horiz-adv-x="1000" />

<glyph glyph-name="beer-bottle" unicode="&#xf2d1;" d="M960 685l-125 125a32 32 0 0 1-45-45l6-5-215-162-150-30a33 33 0 0 1-16-8l-330-331a93 93 0 0 1 0-133l161-161a93 93 0 0 1 133 0l331 330a33 33 0 0 1 8 16l30 150 162 215 5-6a32 32 0 0 1 45 0 32 32 0 0 1 0 45z m-554-635l-206 206 175 175 206-206z m-116-71l-161 161a31 31 0 0 0 0 45l27 27 206-206-27-27a32 32 0 0 0-45 0z m404 484a32 32 0 0 1-6-13l-29-147-34-34-206 206 34 34 147 29a32 32 0 0 1 13 6l228 171 24-24z" horiz-adv-x="1000" />

<glyph glyph-name="behance-logo" unicode="&#xf2d2;" d="M625 538a31 31 0 0 0 31 31h250a31 31 0 0 0 0-63h-250a31 31 0 0 0-31 32z m344-282a31 31 0 0 0-31-31h-278a125 125 0 0 1 121-94 123 123 0 0 1 89 37 31 31 0 0 0 44 0 31 31 0 0 0 0-44 185 185 0 0 0-133-55 188 188 0 1 0 188 187z m-67 32a125 125 0 0 1-242 0z m-355-55a164 164 0 0 0-164-164h-258a31 31 0 0 0-31 31v500a31 31 0 0 0 31 31h211a148 148 0 0 0 111-247 164 164 0 0 0 100-151z m-391 164h180a86 86 0 0 1 0 172h-180z m328-164a102 102 0 0 1-101 101h-227v-203h227a102 102 0 0 1 101 102z" horiz-adv-x="1000" />

<glyph glyph-name="bell" unicode="&#xf2d3;" d="M863 163c-23 40-51 116-51 250v27c0 173-139 315-310 316h-2a312 312 0 0 1-312-312v-31c0-134-27-210-50-250a63 63 0 0 1 53-94h153a156 156 0 0 1 312 0h153a62 62 0 0 1 54 31 63 63 0 0 1 0 63z m-363-188a94 94 0 0 0-94 94h188a94 94 0 0 0-94-94z m-309 156c27 47 60 134 60 282v31a249 249 0 0 0 249 250h2c136-1 247-115 247-254v-27c0-148 33-235 60-282z" horiz-adv-x="1000" />

<glyph glyph-name="bell-ringing" unicode="&#xf2d4;" d="M812 413a311 311 0 0 1-310 312h-2a312 312 0 0 1-312-312c0-134-27-210-50-250a63 63 0 0 1-1-63 62 62 0 0 1 54-31h153a156 156 0 0 1 312 0h153a62 62 0 0 1 54 31 63 63 0 0 1 0 63c-23 40-51 116-51 250z m-312-438a94 94 0 0 0-94 94h188a94 94 0 0 0-94-94z m-309 156c27 47 60 134 60 282a249 249 0 0 0 249 250h2a246 246 0 0 0 175-74 248 248 0 0 0 72-176c0-148 33-235 60-282z m688 433a36 36 0 0 0-14-3 31 31 0 0 0-28 17 379 379 0 0 1-137 152 31 31 0 0 0 33 53 436 436 0 0 0 160-177 31 31 0 0 0-14-42z m-744-3a36 36 0 0 0-13 3 31 31 0 0 0-15 42 436 436 0 0 0 160 177 31 31 0 0 0 33-53 379 379 0 0 1-137-152 31 31 0 0 0-28-17z" horiz-adv-x="1000" />

<glyph glyph-name="bell-simple" unicode="&#xf2d5;" d="M656-25a31 31 0 0 0-31-31h-250a31 31 0 0 0 0 62h250a31 31 0 0 0 31-31z m207 125a62 62 0 0 0-54-31h-618a63 63 0 0 0-53 94c23 40 50 116 50 250v31a312 312 0 0 0 312 312h2c171-1 310-143 310-316v-27c0-134 28-210 51-250a63 63 0 0 0 0-63z m-54 31c-27 47-60 134-60 282v27c0 139-111 253-247 254h-2a249 249 0 0 1-249-250v-31c0-148-33-235-60-282z" horiz-adv-x="1000" />

<glyph glyph-name="bell-simple-ringing" unicode="&#xf2d6;" d="M656-25a31 31 0 0 0-31-31h-250a31 31 0 0 0 0 62h250a31 31 0 0 0 31-31z m207 188a63 63 0 0 0 0-63 62 62 0 0 0-54-31h-618a62 62 0 0 0-54 31 63 63 0 0 0 1 63c23 40 50 116 50 250a312 312 0 1 0 624 0c0-134 28-210 51-250z m-54-32c-27 47-60 134-60 282a248 248 0 0 1-72 176 246 246 0 0 1-175 74h-2a249 249 0 0 1-249-250c0-148-33-235-60-282z m84 475a436 436 0 0 1-160 177 31 31 0 0 1-33-53 379 379 0 0 0 137-152 31 31 0 0 1 28-17 36 36 0 0 1 14 3 31 31 0 0 1 14 42z m-730-28a379 379 0 0 0 137 152 31 31 0 0 1-33 53 436 436 0 0 1-160-177 31 31 0 0 1 15-42 36 36 0 0 1 13-3 31 31 0 0 1 28 17z" horiz-adv-x="1000" />

<glyph glyph-name="bell-simple-slash" unicode="&#xf2d7;" d="M211 715a31 31 0 0 1-46-42l65-73a313 313 0 0 1-42-156v-31c0-134-27-210-50-250a63 63 0 0 1 53-94h522l77-84a31 31 0 0 1 23-10 32 32 0 0 1 21 8 31 31 0 0 1 2 44z m-20-584c27 47 60 134 60 282v31a247 247 0 0 0 24 107l382-420z m465-156a31 31 0 0 0-31-31h-250a31 31 0 0 0 0 62h250a31 31 0 0 0 31-31z m-322 698a32 32 0 0 0 12 43 313 313 0 0 0 156 40c171-1 310-143 310-316v-27c0-86 11-157 33-213a31 31 0 0 0-18-41 32 32 0 0 0-40 18c-25 63-38 142-38 236v27c0 139-111 253-247 254a249 249 0 0 1-125-33 31 31 0 0 0-43 12z" horiz-adv-x="1000" />

<glyph glyph-name="bell-simple-z" unicode="&#xf2d8;" d="M656-25a31 31 0 0 0-31-31h-250a31 31 0 0 0 0 62h250a31 31 0 0 0 31-31z m207 125a62 62 0 0 0-54-31h-618a62 62 0 0 0-54 31 63 63 0 0 0 1 63c23 40 50 116 50 250v31a312 312 0 0 0 312 312h2c171-1 310-143 310-316v-27c0-134 28-210 51-250a63 63 0 0 0 0-63z m-54 31c-27 47-60 134-60 282v27c0 139-111 253-247 254h-2a249 249 0 0 1-249-250v-31c0-148-33-235-60-282z m-231 188h-89l113 136a31 31 0 0 1 4 33 31 31 0 0 1-28 18h-156a31 31 0 0 1 0-62h89l-113-137a31 31 0 0 1-4-33 31 31 0 0 1 28-18h156a31 31 0 0 1 0 63z" horiz-adv-x="1000" />

<glyph glyph-name="bell-slash" unicode="&#xf2d9;" d="M211 715a31 31 0 0 1-46-42l65-73a313 313 0 0 1-42-156v-31c0-134-27-210-50-250a63 63 0 0 1 53-94h153a156 156 0 0 1 312 0h57l77-84a31 31 0 0 1 23-10 32 32 0 0 1 21 8 31 31 0 0 1 2 44z m289-740a94 94 0 0 0-94 94h188a94 94 0 0 0-94-94z m-309 156c27 47 60 134 60 282v31a247 247 0 0 0 24 107l382-420z m143 542a32 32 0 0 0 12 43 315 315 0 0 0 156 40c171-1 310-143 310-316v-27c0-86 11-157 33-213a31 31 0 0 0-18-41 36 36 0 0 0-11-2 31 31 0 0 0-29 20c-25 63-38 142-38 236v27c0 139-111 253-247 254a249 249 0 0 1-125-33 31 31 0 0 0-43 12z" horiz-adv-x="1000" />

<glyph glyph-name="bell-z" unicode="&#xf2da;" d="M863 163c-23 40-51 116-51 250v27c0 173-139 315-310 316h-2a312 312 0 0 1-312-312v-31c0-134-27-210-50-250a63 63 0 0 1-1-63 62 62 0 0 1 54-31h153a156 156 0 0 1 312 0h153a62 62 0 0 1 54 31 63 63 0 0 1 0 63z m-363-188a94 94 0 0 0-94 94h188a94 94 0 0 0-94-94z m-309 156c27 47 60 134 60 282v31a249 249 0 0 0 249 250h2c136-1 247-115 247-254v-27c0-148 33-235 60-282z m418 157a31 31 0 0 0-31-32h-156a31 31 0 0 0-28 18 31 31 0 0 0 4 33l113 137h-89a31 31 0 0 0 0 62h156a31 31 0 0 0 28-18 31 31 0 0 0-4-33l-113-136h89a31 31 0 0 0 31-31z" horiz-adv-x="1000" />

<glyph glyph-name="bezier-curve" unicode="&#xf2db;" d="M864 286a379 379 0 0 1-157 220h231a31 31 0 0 1 0 63h-317a125 125 0 0 1-242 0h-316a31 31 0 0 1 0-63h230a379 379 0 0 1-157-220 125 125 0 1 1 64-6 315 315 0 0 0 187 205 125 125 0 0 1 226 0 315 315 0 0 0 187-205 125 125 0 1 1 64 6z m-645-123a63 63 0 1 0-63 62 63 63 0 0 0 63-62z m281 312a63 63 0 1 0 63 63 63 63 0 0 0-63-63z m344-375a63 63 0 1 0 62 63 63 63 0 0 0-62-63z" horiz-adv-x="1000" />

<glyph glyph-name="bicycle" unicode="&#xf2dc;" d="M813 413a184 184 0 0 1-66-13l-99 169h102a31 31 0 0 0 31-31 31 31 0 0 1 63 0 94 94 0 0 1-94 93h-156a31 31 0 0 1-27-15 30 30 0 0 1 0-32l45-78h-224l-64 110a31 31 0 0 1-27 15h-109a31 31 0 0 1 0-62h91l53-92-61-84a182 182 0 0 1-83 20 188 188 0 1 1 134-57l45 62 122-209a31 31 0 1 1 54 32l-119 203h225l44-75a187 187 0 1 1 120 44z m-500-188a125 125 0 1 0-125 125 121 121 0 0 0 46-9l-72-98a31 31 0 0 1 7-43 32 32 0 0 1 19-6 31 31 0 0 1 25 13l71 97a123 123 0 0 0 29-79z m500-125a125 125 0 0 0-125 125 123 123 0 0 0 37 89l61-105a31 31 0 1 1 54 32l-61 104a123 123 0 0 0 34 5 125 125 0 0 0 0-250z" horiz-adv-x="1000" />

<glyph glyph-name="binoculars" unicode="&#xf2dd;" d="M927 257a210 210 0 0 1-10 21l-162 370a32 32 0 0 1-7 9 125 125 0 0 1-176 0 31 31 0 0 1-9-22v-113h-125v113a31 31 0 0 1-9 22 125 125 0 0 1-177 0 32 32 0 0 1-7-9l-162-370a210 210 0 0 1-10-21 185 185 0 0 1-10-63 188 188 0 0 1 375 0v265h125v-265a188 188 0 0 1 375 0 185 185 0 0 1-11 63z m-627 359a63 63 0 0 0 75 5v-288a185 185 0 0 1-125 48 188 188 0 0 1-58-9z m-50-547a125 125 0 0 0-118 167l8 16a125 125 0 1 0 110-183z m375 552a63 63 0 0 0 75-5l108-244a188 188 0 0 1-58 9 185 185 0 0 1-125-48z m125-552a125 125 0 1 0 111 183l7-16a125 125 0 0 0-118-167z" horiz-adv-x="1000" />

<glyph glyph-name="bird" unicode="&#xf2de;" d="M688 584a47 47 0 1 0-47 47 47 47 0 0 0 47-47z m-199-241a31 31 0 0 1-44-4l-156-188a31 31 0 0 1 4-44 31 31 0 0 1 43 4l157 188a31 31 0 0 1-4 44z m449 195a31 31 0 0 0-15-27l-79-53v-77a407 407 0 0 0-406-406h-407a31 31 0 0 0-24 51l368 460v67a234 234 0 0 0 458 71l90-60a31 31 0 0 0 15-26z m-88 0l-61 41a31 31 0 0 0-13 18 172 172 0 0 1-338-44v-78a30 30 0 0 0-7-19l-335-418h342a344 344 0 0 1 343 343v94a31 31 0 0 0 14 26z" horiz-adv-x="1000" />

<glyph glyph-name="bluetooth" unicode="&#xf2df;" d="M738 188l-217 162 217 163a31 31 0 0 1 0 50l-250 187a31 31 0 0 1-33 3 31 31 0 0 1-17-28v-312l-200 150a31 31 0 0 1-38-50l217-163-217-162a31 31 0 0 1 19-57 30 30 0 0 1 19 7l200 150v-313a32 32 0 0 1 17-28 37 37 0 0 1 14-3 30 30 0 0 1 19 6l250 188a31 31 0 0 1 0 50z m-238 475l167-125-167-125z m0-625v250l167-125z" horiz-adv-x="1000" />

<glyph glyph-name="bluetooth-connected" unicode="&#xf2e0;" d="M738 188l-217 162 217 163a31 31 0 0 1 0 50l-250 187a31 31 0 0 1-33 3 31 31 0 0 1-17-28v-312l-200 150a31 31 0 0 1-38-50l217-163-217-162a31 31 0 0 1 19-57 30 30 0 0 1 19 7l200 150v-313a32 32 0 0 1 17-28 37 37 0 0 1 14-3 30 30 0 0 1 19 6l250 188a31 31 0 0 1 0 50z m-238 475l167-125-167-125z m0-625v250l167-125z m313 312a47 47 0 1 0-47 47 47 47 0 0 0 47-47z m-610-47a47 47 0 1 0 47 47 47 47 0 0 0-47-47z" horiz-adv-x="1000" />

<glyph glyph-name="bluetooth-slash" unicode="&#xf2e1;" d="M836 27l-123 135-122 135h-1l-379 418a31 31 0 0 1-45 2 31 31 0 0 1-1-44l276-305-241-180a31 31 0 0 1 19-57 30 30 0 0 1 19 7l200 150v-313a32 32 0 0 1 17-28 37 37 0 0 1 14-3 30 30 0 0 1 19 6l198 149 104-114a31 31 0 0 1 44-2 31 31 0 0 1 2 44z m-336 11v250l46-35 98-108z m-62 532v155a31 31 0 0 0 50 25l250-187a31 31 0 0 0 0-50l-131-98a31 31 0 0 0-19-7 31 31 0 0 0-25 13 31 31 0 0 0 6 44l98 73-167 125v-93a31 31 0 0 0-62 0z" horiz-adv-x="1000" />

<glyph glyph-name="bluetooth-x" unicode="&#xf2e2;" d="M738 188l-217 162 92 69a31 31 0 0 1 6 44 32 32 0 0 1-44 6l-75-56v250l75-57a31 31 0 0 1 44 7 32 32 0 0 1-6 43l-125 94a31 31 0 0 1-50-25v-312l-200 150a32 32 0 0 1-44-7 31 31 0 0 1 6-43l217-163-217-162a31 31 0 0 1 19-57 30 30 0 0 1 19 7l200 150v-313a32 32 0 0 1 17-28 37 37 0 0 1 14-3 30 30 0 0 1 19 6l250 188a31 31 0 0 1 0 50z m-238-150v250l167-125z m429 428a32 32 0 0 0 0-44 32 32 0 0 0-45 0l-71 71-72-71a32 32 0 0 0-44 0 32 32 0 0 0 0 44l71 72-71 71a32 32 0 0 0 44 45l72-72 71 72a32 32 0 0 0 45-45l-72-71z" horiz-adv-x="1000" />

<glyph glyph-name="boat" unicode="&#xf2e3;" d="M864 418l-51 17v196a63 63 0 0 1-63 63h-219v62a31 31 0 0 1-62 0v-62h-219a63 63 0 0 1-62-63v-196l-52-17a63 63 0 0 1-42-59v-134a32 32 0 0 1 1-9c61-214 336-289 391-301a64 64 0 0 1 28 0c55 12 330 87 391 301a32 32 0 0 1 1 9v134a63 63 0 0 1-42 59z m-614 213h500v-175l-230 76a58 58 0 0 1-18 4h-4a58 58 0 0 1-18-4l-230-76z m594-401c-23-74-80-138-172-188a722 722 0 0 0-172-66 722 722 0 0 0-172 66c-92 50-149 114-172 188v129l72 24 241 80v-269a31 31 0 0 1 62 0v269l241-80 72-24z" horiz-adv-x="1000" />

<glyph glyph-name="book" unicode="&#xf2e4;" d="M813 756h-532a125 125 0 0 1-125-125v-656a31 31 0 0 1 32-31h562a31 31 0 0 1 0 62h-531a63 63 0 0 0 62 63h532a31 31 0 0 1 31 31v625a31 31 0 0 1-31 31z m-32-625h-500a126 126 0 0 1-62-16v516a63 63 0 0 0 62 63h500z" horiz-adv-x="1000" />

<glyph glyph-name="book-bookmark" unicode="&#xf2e5;" d="M813 756h-532a125 125 0 0 1-125-125v-656a31 31 0 0 1 32-31h562a31 31 0 0 1 0 62h-531a63 63 0 0 0 62 63h532a31 31 0 0 1 31 31v625a31 31 0 0 1-31 31z m-344-62h187v-281l-75 56a32 32 0 0 1-37 0l-75-56z m312-563h-500a126 126 0 0 1-62-16v516a63 63 0 0 0 62 63h125v-344a31 31 0 0 1 50-25l107 80 106-80a30 30 0 0 1 19-6 37 37 0 0 1 14 3 32 32 0 0 1 17 28v344h62z" horiz-adv-x="1000" />

</font>
</defs>
</svg>
